#N canvas 0 87 1425 818 10;
#N canvas 396 149 450 300 (subpatch) 0;
#X array pitchtable 50 float 3;
#A 0 3 455 871 1282 1626 1990 2309 2626 2917 3190 3455 3688 3923 4150
4357 4550 4738 4915 5069 5229 5377 5517 5642 5758 5874 2828 0 0 0 0
0 0 0 0 0 0 0 0 0 0 0 0 0 0 0 0 0 0 0 0;
#X coords 0 10000 50 0 502 400 1 0 0;
#X restore 540 170 graph;
#X msg 398 -108 home;
#X obj 1178 29 r steppos1;
#X obj 1178 104 s \$0-pos;
#X obj 302 -84 r \$0-pos;
#X obj 302 -34 sel 0;
#X obj 285 409 r pitch;
#X obj 285 558 +;
#X obj 307 527 float;
#X obj 285 474 t f b;
#X obj 347 558 +;
#X obj 391 592 int;
#X msg 312 497 1;
#X obj 407 544 t f f;
#X obj 285 644 /;
#X msg 389 342 1;
#X obj 285 443 spigot;
#X msg 346 426 0;
#X obj 362 316 t b b b;
#X obj 389 208 r \$0-smpldel;
#X obj 362 233 delay;
#X obj 419 351 r \$0-smpltme;
#X obj 362 368 delay;
#X obj 319 385 t b b;
#N canvas 0 50 450 300 (subpatch) 0;
#X array trgt_scale 26 float 3;
#A 0 0 100 200 300 400 500 600 700 800 900 1000 1100 1200 1300 1400
1500 1600 1700 1800 1900 2000 2100 2200 2300 2400 0;
#X coords 0 2000 26 -1 200 140 1 0 0;
#X restore 618 -58 graph;
#X obj 866 108 tabwrite trgt_scale;
#X obj 870 -23 until;
#X obj 875 30 +;
#X msg 870 -1 1;
#X obj 914 13 int;
#X obj 875 54 t f f;
#X obj 870 -55 t f b;
#X msg 909 -24 0;
#X obj 875 78 * 100;
#X obj 338 97 int;
#X msg 302 57 1;
#X obj 302 114 +;
#X obj 302 5 t b b;
#X obj 136 774 tabread trgt_scale;
#X obj 332 320 int;
#X floatatom 136 809 5 0 0 0 - - -;
#X msg 329 36 -1;
#X obj 285 667 * 100;
#X floatatom 223 737 5 0 0 0 - - -;
#X obj 285 730 int;
#X obj 285 758 -;
#X obj 313 731 r \$0-root;
#X obj 270 791 -;
#X floatatom 193 836 5 0 0 0 - - -;
#X obj 285 697 + 0.5;
#X obj 302 137 int;
#X obj 285 938 r \$0-pos;
#X obj 398 -66 s \$0-stepper;
#X obj 1081 -13 s stepper1;
#X obj 1081 -54 r \$0-stepper;
#X msg 270 1007 pos \$1;
#X obj 270 1035 s \$0-stepper;
#X obj 270 963 +;
#X floatatom 209 965 5 0 0 0 - - -;
#X obj 176 99 sel 0 1;
#X obj 203 126 r \$0-seekdel;
#X obj 176 148 delay;
#X obj 373 981 s \$0-match;
#X obj 176 71 r \$0-match;
#X obj 172 337 tabwrite pitchtable;
#X obj 172 250 r \$0-pos;
#X floatatom 124 278 5 0 0 0 - - -;
#X obj 1182 -50 r max_step1_pos;
#X obj 1182 -16 s \$0-max_pos;
#X obj 446 5 r \$0-max_pos;
#X obj 1055 65 s max_step1_pos;
#X obj 446 112 -;
#X obj 464 32 r \$0-pos;
#X floatatom 485 106 5 0 0 0 - - -;
#X obj 464 59 t b f;
#X obj 302 162 spigot;
#X obj 446 138 > 0;
#X msg 419 -42 \; pitchtable const 0 \;;
#X msg 1055 40 4300;
#X obj 302 189 t b f f f b b;
#X obj 282 236 s \$0-index;
#X obj 548 843 r \$0-index;
#X floatatom 550 878 5 0 0 0 - - -;
#X obj 597 657 r pitch;
#X floatatom 613 717 5 0 0 0 - - -;
#X obj 373 841 expr sqrt($f1*$f1);
#X obj 404 872 r \$0-tolerance;
#X obj 373 889 <=;
#X obj 270 855 t f f;
#X obj 270 906 spigot;
#X obj 303 884 == 0;
#X obj 446 183 s \$0-process;
#X obj 205 273 r \$0-process;
#X obj 172 296 spigot;
#X obj 517 -98 s \$0-process;
#X obj 518 -151 tgl 15 0 empty empty empty 17 7 0 10 -262144 -1 -1
0 1;
#X msg 525 -126 1;
#X msg 557 -129 0;
#X obj 1178 72 spigot;
#X obj 1234 65 r \$0-process;
#X obj 335 137 r \$0-process;
#X obj 396 -162 r \$0-process;
#X obj 397 -132 sel 1;
#X obj 446 161 change;
#X floatatom 352 164 5 0 0 0 - - -;
#X obj 1123 137 \$0;
#X obj 1123 112 bng 15 250 50 0 empty empty empty 17 7 0 10 -262144
-1 -1;
#X floatatom 424 910 5 0 0 0 - - -;
#X obj 1053 15 loadbang;
#X obj 1132 393 r scale;
#X obj 1089 612 tabwrite trgt_scale;
#X obj 1125 452 list split 1;
#X obj 1103 451 bng 15 250 50 0 empty empty empty 17 7 0 10 -262144
-1 -1;
#X obj 1165 487 list;
#X obj 1096 494 t b a b;
#X obj 1169 536 int;
#X obj 1134 546 +;
#X msg 1133 521 1;
#X msg 1213 448 0;
#X msg 1255 454 \; trgt_scale const 0 \;;
#X obj 1148 417 t a b b;
#X msg 1365 -32 \; scale 76 193 310 386 503 579 696 772 890 1007 1083
1200;
#X msg 1366 -81 zarlino \; scale 204 386 498 702 884 1088 1200;
#X floatatom 326 775 5 0 0 0 - - -;
#X msg 1011 -63 spd 30;
#X msg 1575 269 \; pitchtable write scales/rarlino.txt;
#X msg 1348 231 \; pitchtable read scales/rarlino.txt;
#X obj 554 -172 loadbang;
#X text 850 -106 create equal scale;
#X text 1365 -111 create custom scales;
#X text 1132 251 general paras;
#X floatatom 320 970 5 0 0 0 - - -;
#X floatatom 229 680 5 0 0 0 - - -;
#X floatatom 340 651 5 0 0 0 - - -;
#X floatatom 175 557 5 0 0 0 - - -;
#X msg 402 516 0;
#X obj 228 423 bng 15 250 50 0 empty empty empty 17 7 0 10 -262144
-1 -1;
#X msg 223 449 31;
#X msg 1129 164 \; \$1-root 2400 \; \$1-smpldel 500 \; \$1-smpltme
1000 \; \$1-seekdel 500 \; \$1-tolerance 1 \;;
#X msg 1352 273 \; pitchtable read scales/equal.txt;
#X text 1416 205 save and load scales;
#X msg 1573 231 \; pitchtable write scales/equal.txt;
#X msg 870 -81 24;
#X obj 270 820 / 2;
#X obj 270 985 int;
#X msg 378 270 \; kickup 0.5;
#X connect 1 0 52 0;
#X connect 2 0 98 0;
#X connect 4 0 5 0;
#X connect 5 0 37 0;
#X connect 6 0 16 0;
#X connect 7 0 8 0;
#X connect 7 0 134 0;
#X connect 7 0 14 0;
#X connect 8 0 7 1;
#X connect 9 0 7 0;
#X connect 9 1 12 0;
#X connect 10 0 11 0;
#X connect 10 0 133 0;
#X connect 10 0 14 1;
#X connect 11 0 10 1;
#X connect 12 0 10 0;
#X connect 13 0 7 1;
#X connect 13 1 10 1;
#X connect 14 0 42 0;
#X connect 14 0 132 0;
#X connect 15 0 16 1;
#X connect 16 0 9 0;
#X connect 17 0 16 1;
#X connect 18 0 22 0;
#X connect 18 1 15 0;
#X connect 18 2 135 0;
#X connect 19 0 20 1;
#X connect 20 0 18 0;
#X connect 21 0 22 1;
#X connect 22 0 23 0;
#X connect 23 0 39 0;
#X connect 23 1 17 0;
#X connect 26 0 28 0;
#X connect 27 0 29 0;
#X connect 27 0 30 0;
#X connect 28 0 27 0;
#X connect 29 0 27 1;
#X connect 30 0 33 0;
#X connect 30 1 25 1;
#X connect 31 0 26 0;
#X connect 31 1 32 0;
#X connect 32 0 27 1;
#X connect 33 0 25 0;
#X connect 34 0 36 1;
#X connect 35 0 36 0;
#X connect 36 0 34 0;
#X connect 36 0 50 0;
#X connect 37 0 35 0;
#X connect 37 1 41 0;
#X connect 38 0 40 0;
#X connect 38 0 47 0;
#X connect 39 0 38 0;
#X connect 41 0 36 1;
#X connect 42 0 49 0;
#X connect 44 0 43 0;
#X connect 44 0 45 0;
#X connect 45 0 47 1;
#X connect 45 0 123 0;
#X connect 46 0 45 1;
#X connect 47 0 48 0;
#X connect 47 0 143 0;
#X connect 49 0 44 0;
#X connect 50 0 75 0;
#X connect 51 0 57 1;
#X connect 51 0 131 0;
#X connect 54 0 53 0;
#X connect 55 0 56 0;
#X connect 57 0 144 0;
#X connect 59 0 61 0;
#X connect 59 1 35 0;
#X connect 60 0 61 1;
#X connect 61 0 50 0;
#X connect 63 0 59 0;
#X connect 65 0 66 0;
#X connect 65 0 93 0;
#X connect 67 0 68 0;
#X connect 69 0 71 0;
#X connect 71 0 73 0;
#X connect 71 0 76 0;
#X connect 72 0 74 0;
#X connect 74 0 71 0;
#X connect 74 1 71 1;
#X connect 75 0 79 0;
#X connect 76 0 103 0;
#X connect 78 0 70 0;
#X connect 79 1 80 0;
#X connect 79 2 64 1;
#X connect 79 3 39 1;
#X connect 79 4 20 0;
#X connect 79 5 145 0;
#X connect 81 0 82 0;
#X connect 83 0 84 0;
#X connect 85 0 87 0;
#X connect 86 0 87 1;
#X connect 86 0 107 0;
#X connect 87 0 62 0;
#X connect 87 0 90 0;
#X connect 88 0 89 0;
#X connect 88 1 85 0;
#X connect 89 0 57 0;
#X connect 90 0 89 1;
#X connect 92 0 93 1;
#X connect 93 0 64 0;
#X connect 96 0 94 0;
#X connect 97 0 94 0;
#X connect 98 0 3 0;
#X connect 99 0 98 1;
#X connect 100 0 75 1;
#X connect 100 0 104 0;
#X connect 101 0 102 0;
#X connect 102 0 1 0;
#X connect 105 0 138 0;
#X connect 106 0 105 0;
#X connect 108 0 78 0;
#X connect 108 0 105 0;
#X connect 109 0 120 0;
#X connect 111 0 114 0;
#X connect 111 1 113 1;
#X connect 112 0 111 0;
#X connect 113 0 111 0;
#X connect 114 0 113 0;
#X connect 114 1 110 0;
#X connect 114 2 117 0;
#X connect 115 0 116 1;
#X connect 116 0 115 0;
#X connect 116 0 110 1;
#X connect 117 0 116 0;
#X connect 118 0 116 1;
#X connect 120 0 111 0;
#X connect 120 1 118 0;
#X connect 120 2 119 0;
#X connect 124 0 53 0;
#X connect 127 0 97 0;
#X connect 135 0 13 0;
#X connect 136 0 9 0;
#X connect 137 0 9 0;
#X connect 142 0 31 0;
#X connect 143 0 88 0;
#X connect 144 0 55 0;
#X connect 144 0 58 0;
