#N canvas 47 87 1553 818 10;
#X msg 305 -5 \; pd dsp 1;
#X msg 305 37 \; pd dsp 0;
#X obj 305 -31 loadbang;
#N canvas 666 176 263 214 filters 0;
#X obj 47 41 inlet~;
#X obj 47 176 outlet~;
#X text 103 79 DC filter;
#X text 140 140 sibilant filter;
#X obj 125 41 inlet;
#X text 165 40 freq;
#X obj 47 80 hip~ 160;
#X obj 47 140 lop~ 2000;
#X connect 0 0 6 0;
#X connect 4 0 7 1;
#X connect 6 0 7 0;
#X connect 7 0 1 0;
#X restore 582 -31 pd filters;
#X text 638 -73 lo pass filter freq;
#X obj 631 88 ftom;
#X obj 631 114 s pitch;
#N canvas 45 92 664 686 servo 0;
#X obj 188 294 s comctl;
#X obj 215 -62 tgl 15 0 empty empty empty 17 7 0 10 -262144 -1 -1 0
1;
#X obj 215 -38 sel 0 1;
#X obj 188 167 int;
#X msg 316 155 88;
#X msg 188 200 \$1;
#X msg 285 155 86;
#X msg 270 94 93;
#X msg 230 95 81;
#X msg 188 259 214 \$1;
#X obj 188 229 + 0;
#X obj 118 -170 r pick;
#X obj 110 -133 route hit mute unmute;
#X msg 258 -219 \; pick hit;
#X msg 365 -221 \; pick mute;
#X msg 445 -227 \; pick unmute;
#X obj 134 136 int;
#X msg 295 32 set \$1;
#X text 363 -89 center;
#X text 420 -90 spread hit;
#X text 506 -91 spreadmute;
#X msg 236 31 set \$1;
#X obj 324 -6 +;
#X obj 278 -10 -;
#X msg 378 85 set \$1;
#X msg 319 84 set \$1;
#X obj 407 47 +;
#X obj 361 43 -;
#X msg 368 -67 87;
#X msg 435 -67 6;
#X obj 86 -13 tgl 15 0 empty empty empty 17 7 0 10 -262144 -1 -1 0
1;
#X obj 85 22 sel 0 1;
#X obj 119 -95 t b b;
#X msg 86 -61 0;
#X obj 374 -158 loadbang;
#X obj 376 -133 t b b b;
#X obj 353 -161 bng 15 250 50 0 empty empty empty 17 7 0 10 -262144
-1 -1;
#X msg 147 -17 0;
#X msg 116 -17 1;
#X obj 86 -36 t a;
#X msg 515 -66 1;
#X connect 1 0 2 0;
#X connect 2 0 8 0;
#X connect 2 1 7 0;
#X connect 3 0 5 0;
#X connect 4 0 3 1;
#X connect 5 0 10 0;
#X connect 6 0 3 1;
#X connect 7 0 4 0;
#X connect 7 0 16 0;
#X connect 8 0 6 0;
#X connect 8 0 16 0;
#X connect 9 0 0 0;
#X connect 10 0 9 0;
#X connect 11 0 12 0;
#X connect 12 0 32 0;
#X connect 12 1 3 0;
#X connect 12 1 39 0;
#X connect 12 2 37 0;
#X connect 16 0 5 0;
#X connect 17 0 7 0;
#X connect 21 0 8 0;
#X connect 22 0 17 0;
#X connect 23 0 21 0;
#X connect 24 0 4 0;
#X connect 25 0 6 0;
#X connect 26 0 24 0;
#X connect 27 0 25 0;
#X connect 28 0 22 0;
#X connect 28 0 27 0;
#X connect 28 0 26 0;
#X connect 28 0 5 0;
#X connect 28 0 23 0;
#X connect 29 0 23 1;
#X connect 29 0 22 1;
#X connect 31 0 16 0;
#X connect 31 1 3 0;
#X connect 32 0 1 0;
#X connect 32 1 33 0;
#X connect 33 0 39 0;
#X connect 34 0 35 0;
#X connect 35 0 28 0;
#X connect 35 1 29 0;
#X connect 35 2 40 0;
#X connect 36 0 35 0;
#X connect 37 0 31 0;
#X connect 38 0 31 0;
#X connect 39 0 30 0;
#X connect 40 0 27 1;
#X connect 40 0 26 1;
#X restore 465 -11 pd servo;
#X obj 465 -38 pack;
#X msg 210 13 open 32;
#X msg 210 41 close;
#X obj 210 92 comport 1 115200;
#X msg 210 -15 devices;
#X obj 210 63 r comctl;
#X obj 210 -96 loadbang;
#X msg 221 -67 jpnevulator --tty /dev/ttyUSB0;
#X obj 224 -39 shell;
#X obj 210 116 s comrcv;
#X floatatom 589 119 5 0 0 0 - - -, f 5;
#X text 268 169 midi commands;
#X text 267 199 24-36 pitch 23 step enable 22 home 12 NoteOn_NoteOff
CC1 Speed;
#X msg 334 99 211;
#X msg 371 94 10;
#N canvas 651 107 664 686 kickup 0;
#X obj 198 404 s comctl;
#X msg 113 305 10;
#X msg 198 370 216 \$1;
#X obj 198 174 r kickup;
#X obj 198 238 clip 0 1;
#X obj 277 261 -;
#X obj 299 196 t b b;
#X floatatom 277 302 5 0 0 0 - - -, f 5;
#X obj 305 153 bng 15 250 50 0 empty empty empty 17 7 0 10 -262144
-1 -1;
#X obj 198 307 +;
#X obj 198 278 *;
#X text 340 218 upper limit;
#X text 356 243 lower limit;
#X obj 324 116 loadbang;
#X obj 198 338 pipe 25;
#X msg 326 244 5;
#X msg 299 220 25;
#X connect 1 0 2 0;
#X connect 2 0 0 0;
#X connect 3 0 4 0;
#X connect 4 0 10 0;
#X connect 5 0 7 0;
#X connect 5 0 10 1;
#X connect 6 0 16 0;
#X connect 6 1 15 0;
#X connect 8 0 6 0;
#X connect 9 0 14 0;
#X connect 10 0 9 0;
#X connect 13 0 6 0;
#X connect 14 0 2 0;
#X connect 15 0 5 1;
#X connect 15 0 9 1;
#X connect 16 0 5 0;
#X restore 466 48 pd kickup;
#N canvas 128 170 450 300 latency 0;
#X obj 111 27 adc~ 1;
#X obj 207 101 s cntrl;
#X msg 206 47 kick \$1;
#X msg 281 14 1;
#X msg 276 56 servo1 \$1;
#X obj 333 14 tgl 15 0 empty empty empty 17 7 0 10 -262144 -1 -1 0
1;
#X obj 139 229 change;
#X obj 158 262 sel 1;
#X obj 158 292 bng 15 250 50 0 empty empty empty 17 7 0 10 -262144
-1 -1;
#X obj 326 136 expr $f1 > 70;
#X obj 134 179 sel 1;
#X obj 194 180 sel 1;
#X msg 136 204 1;
#X msg 183 203 0;
#X floatatom 252 188 8 0 0 0 - - -, f 8;
#X obj 244 127 b;
#X msg 200 11 14;
#X obj 130 59 env~ 512;
#X obj 248 157 realtime;
#X obj 142 152 > 70;
#X obj 184 150 < 50;
#X connect 0 0 17 0;
#X connect 2 0 1 0;
#X connect 2 0 15 0;
#X connect 3 0 4 0;
#X connect 3 0 15 0;
#X connect 4 0 1 0;
#X connect 5 0 4 0;
#X connect 5 0 15 0;
#X connect 6 0 7 0;
#X connect 7 0 8 0;
#X connect 7 0 18 1;
#X connect 10 0 12 0;
#X connect 11 0 13 0;
#X connect 12 0 6 0;
#X connect 13 0 6 0;
#X connect 15 0 18 0;
#X connect 16 0 2 0;
#X connect 17 0 19 0;
#X connect 17 0 20 0;
#X connect 18 0 14 0;
#X connect 19 0 10 0;
#X connect 20 0 11 0;
#X restore 462 118 pd latency;
#X obj 465 -89 notein;
#X msg 242 241 home;
#X msg 355 241 pos 1000;
#X obj 427 296 s stepper2;
#X msg 428 242 home;
#X obj 241 295 s stepper1;
#X obj 655 240 r steppos1;
#X floatatom 673 279 5 0 0 0 - - -, f 5;
#X msg 331 281 getpos;
#X floatatom 740 285 5 0 0 0 - - -, f 5;
#X obj 744 244 r steppos2;
#X msg 530 279 getpos;
#X msg 567 248 pos 1100;
#N canvas 0 175 1321 686 midi 0;
#X msg 59 197 home;
#X msg 101 197 enbl 1;
#X obj 58 251 s stepper1;
#X msg 19 168 getpos;
#X obj 124 -6 stripnote;
#X obj 172 168 tabread pitchtable;
#X obj 138 -52 unpack;
#X obj 127 35 moses 48;
#X obj 211 52 int;
#X obj 185 52 b;
#X msg 172 197 pos \$1;
#X obj 251 69 / 127;
#X msg 251 202 spd \$1;
#X msg 337 261 \; pick hit;
#X msg 416 264 \; pick mute;
#X obj 586 159 > 0;
#X obj 586 182 sel 1;
#X obj 586 228 int;
#X obj 586 135 t f f;
#X obj 586 80 int;
#X obj 430 191 stripnote;
#X obj 1140 158 / 127;
#X obj 990 121 / 127;
#X msg 974 279 \; stepper2 pos \$1;
#X msg 1125 278 \; stepper2 spd \$1;
#X obj 973 155 * 1500;
#X msg 660 240 10;
#X obj 586 255 / 127;
#X obj 274 -87 pack;
#X obj 430 162 unpack;
#X obj 588 -42 unpack;
#X msg 488 261 \; pick unmute;
#X obj 971 204 change;
#X obj 1147 213 change;
#X obj 955 180 int;
#X obj 441 18 s ctlin;
#X obj 474 -79 == 1;
#X obj 441 -49 spigot;
#X obj 441 -123 ctlin;
#X obj 441 -81 pack;
#X obj 1067 -60 r ctlin;
#X obj 1069 -32 unpack;
#X obj 990 31 spigot;
#X obj 1139 75 spigot;
#X obj 1050 14 == 2;
#X obj 1166 10 == 3;
#X obj 172 116 - 48;
#X obj 274 -56 spigot;
#X obj 441 -14 spigot;
#X obj 538 -119 r direct_midi;
#X obj 172 82 clip 48 72;
#X obj 274 -120 notein 1;
#X obj 351 -120 notein 2;
#X msg 586 299 \; kickup \$1;
#X floatatom 202 -24 5 0 0 0 - - -, f 5;
#X obj 322 47 sel 0;
#X msg 423 61 \; kickup \$1;
#X msg 314 142 \; pick hit;
#X obj 251 118 t f b;
#X obj 341 -89 pack;
#X obj 341 -58 spigot;
#X obj 341 -21 s notein2;
#X obj 274 -19 s notein1;
#X obj 139 -88 r notein1;
#X obj 431 113 r notein2;
#X obj 586 -71 r notein2;
#X obj 426 229 sel 48 49 50;
#X obj 586 54 sel 51;
#X msg 701 284 \; stepper2 pos \$1;
#X msg 837 277 \; stepper2 spd \$1;
#X obj 701 258 change;
#X obj 831 226 change;
#X obj 719 73 stripnote;
#X obj 719 44 unpack;
#X obj 720 -5 r notein2;
#X obj 703 136 int;
#X obj 711 106 sel 52 53;
#X obj 807 136 int;
#X obj 701 166 / 127;
#X obj 701 231 * 1500;
#X obj 701 188 * -1;
#X obj 701 211 + 1;
#X obj 826 186 / 127;
#X connect 0 0 2 0;
#X connect 1 0 2 0;
#X connect 3 0 2 0;
#X connect 4 0 7 0;
#X connect 4 1 8 1;
#X connect 5 0 10 0;
#X connect 6 0 4 0;
#X connect 6 1 54 0;
#X connect 6 1 4 1;
#X connect 7 1 9 0;
#X connect 7 1 50 0;
#X connect 8 0 11 0;
#X connect 9 0 8 0;
#X connect 10 0 2 0;
#X connect 11 0 58 0;
#X connect 12 0 2 0;
#X connect 15 0 16 0;
#X connect 16 0 17 0;
#X connect 17 0 27 0;
#X connect 18 0 15 0;
#X connect 18 1 17 1;
#X connect 19 0 18 0;
#X connect 20 0 66 0;
#X connect 21 0 33 0;
#X connect 22 0 25 0;
#X connect 25 0 32 0;
#X connect 25 0 34 0;
#X connect 26 0 53 0;
#X connect 27 0 53 0;
#X connect 28 0 47 0;
#X connect 29 0 20 0;
#X connect 29 1 20 1;
#X connect 30 0 67 0;
#X connect 30 1 19 1;
#X connect 32 0 23 0;
#X connect 33 0 24 0;
#X connect 36 0 37 1;
#X connect 37 0 48 0;
#X connect 38 0 39 0;
#X connect 38 1 39 1;
#X connect 38 2 36 0;
#X connect 39 0 37 0;
#X connect 40 0 41 0;
#X connect 41 0 42 0;
#X connect 41 0 43 0;
#X connect 41 1 44 0;
#X connect 41 1 45 0;
#X connect 42 0 22 0;
#X connect 43 0 21 0;
#X connect 44 0 42 1;
#X connect 45 0 43 1;
#X connect 46 0 5 0;
#X connect 47 0 62 0;
#X connect 48 0 35 0;
#X connect 49 0 47 1;
#X connect 49 0 48 1;
#X connect 49 0 60 1;
#X connect 50 0 46 0;
#X connect 51 0 28 0;
#X connect 51 1 28 1;
#X connect 52 0 59 0;
#X connect 52 1 59 1;
#X connect 58 0 12 0;
#X connect 59 0 60 0;
#X connect 60 0 61 0;
#X connect 63 0 6 0;
#X connect 64 0 29 0;
#X connect 65 0 30 0;
#X connect 66 0 13 0;
#X connect 66 1 14 0;
#X connect 66 2 31 0;
#X connect 67 0 19 0;
#X connect 70 0 68 0;
#X connect 71 0 69 0;
#X connect 72 0 76 0;
#X connect 72 1 75 1;
#X connect 72 1 77 1;
#X connect 73 0 72 0;
#X connect 73 1 72 1;
#X connect 74 0 73 0;
#X connect 75 0 78 0;
#X connect 76 0 75 0;
#X connect 76 1 77 0;
#X connect 77 0 82 0;
#X connect 78 0 80 0;
#X connect 79 0 70 0;
#X connect 80 0 81 0;
#X connect 81 0 79 0;
#X connect 82 0 71 0;
#X restore 471 26 pd midi;
#X msg 463 265 enbl \$1;
#X msg 469 232 1;
#X msg 499 229 0;
#X obj 423 156 stepper 1;
#X msg 284 241 enbl 1;
#X msg 280 260 enbl 0;
#X obj 452 72 pitchmapper;
#X obj 580 370 s seq_edit;
#X msg 581 336 1;
#X msg 610 337 0;
#X obj 594 296 loadbang;
#X msg 668 333 1;
#X msg 697 334 0;
#X obj 667 367 s direct_midi;
#X floatatom 699 106 5 0 0 0 - - -, f 5;
#X msg 637 -53 400;
#X obj 651 -85 loadbang;
#X obj 628 58 spigot;
#X floatatom 735 21 5 0 0 0 - - -, f 5;
#X obj 678 38 > 0.99;
#X obj 583 -88 adc~ 1;
#N canvas 264 229 450 300 klick 0;
#X obj 128 193 dac~;
#X obj 31 14 noise~;
#X obj 225 -56 r clock;
#X obj 173 -23 sel 0 4 8 12;
#X obj 173 185 line~;
#X msg 181 59 1;
#X obj 129 150 *~;
#X msg 234 123 0;
#X obj 185 82 t f b;
#X obj 235 89 delay 50;
#X obj 184 160 pack 0 10;
#X obj 33 50 bp~ 2000 5;
#X obj 103 18 osc~ 700;
#X connect 2 0 3 0;
#X connect 3 0 5 0;
#X connect 3 1 5 0;
#X connect 3 2 5 0;
#X connect 3 3 5 0;
#X connect 4 0 6 1;
#X connect 5 0 8 0;
#X connect 6 0 0 0;
#X connect 6 0 0 1;
#X connect 7 0 10 0;
#X connect 8 0 10 0;
#X connect 8 1 9 0;
#X connect 9 0 7 0;
#X connect 10 0 4 0;
#X connect 11 0 6 0;
#X restore 458 97 pd klick;
#X obj 501 155 stepper 2;
#X obj 832 -96 sequencer/sequencer 1 16;
#X obj 582 -3 extra/helmholtz~ 2048 1;
#X connect 2 0 0 0;
#X connect 3 0 63 0;
#X connect 5 0 6 0;
#X connect 5 0 18 0;
#X connect 9 0 11 0;
#X connect 10 0 11 0;
#X connect 11 0 17 0;
#X connect 12 0 11 0;
#X connect 13 0 11 0;
#X connect 14 0 9 0;
#X connect 14 0 15 0;
#X connect 15 0 16 0;
#X connect 21 0 11 0;
#X connect 22 0 11 0;
#X connect 25 0 8 0;
#X connect 25 1 8 1;
#X connect 26 0 30 0;
#X connect 27 0 30 0;
#X connect 29 0 28 0;
#X connect 31 0 32 0;
#X connect 33 0 30 0;
#X connect 35 0 34 0;
#X connect 36 0 28 0;
#X connect 37 0 28 0;
#X connect 39 0 28 0;
#X connect 40 0 39 0;
#X connect 41 0 39 0;
#X connect 43 0 30 0;
#X connect 44 0 30 0;
#X connect 47 0 46 0;
#X connect 48 0 46 0;
#X connect 49 0 50 0;
#X connect 50 0 52 0;
#X connect 51 0 52 0;
#X connect 54 0 3 1;
#X connect 55 0 54 0;
#X connect 56 0 5 0;
#X connect 58 0 56 1;
#X connect 59 0 3 0;
#X connect 63 1 53 0;
#X connect 63 1 56 0;
#X connect 63 2 57 0;
#X connect 63 2 58 0;
