#N canvas 37 54 1329 714 10;
#X msg 112 -59 \; pd dsp 1;
#X msg 112 -17 \; pd dsp 0;
#X obj 112 -85 loadbang;
#X obj 390 -142 adc~;
#N canvas 675 22 263 214 filters 0;
#X obj 47 41 inlet~;
#X obj 47 176 outlet~;
#X text 103 79 DC filter;
#X text 140 140 sibilant filter;
#X obj 125 41 inlet;
#X text 165 40 freq;
#X obj 47 80 hip~ 160;
#X obj 47 140 lp6_cheb~ 3000;
#X connect 0 0 6 0;
#X connect 4 0 7 1;
#X connect 6 0 7 0;
#X connect 7 0 1 0;
#X restore 389 -85 pd filters;
#X obj 446 -110 nbx 4 14 1000 3000 1 1 empty empty empty 0 -8 0 10
-262144 -1 -1 1000 256;
#X text 445 -127 lo pass filter freq;
#X obj 390 -114 +~;
#X obj 438 -33 ftom;
#N canvas 222 101 1016 998 pitchscanner 0;
#X obj 150 741 s comctl;
#X msg 169 686 203 0;
#X msg 168 649 203 1;
#X msg 109 684 205 \$1;
#X obj 99 572 s comctl;
#X obj 92 416 tgl 15 0 empty empty empty 17 7 0 10 -262144 -1 -1 0
1;
#X obj 85 445 sel 0 1;
#X obj 128 255 r pitch;
#N canvas 396 149 450 300 (subpatch) 0;
#X array pitchtable 50 float 3;
#A 0 0 0 0 0 0 0 0 0 0 0 0 0 0 0 0 0 0 0 0 0 0 0 0 0 140 660 1110 1560
1910 2260 2610 2900 3190 3540 3770 3980 4190 0 0 0 0 0 0 0 0 0 0 0
0 0;
#X coords 0 10000 50 0 502 140 1 0 0;
#X restore 38 -51 graph;
#X obj 121 337 tabwrite pitchtable;
#X floatatom 53 282 5 0 0 0 - - -;
#X floatatom 266 336 5 0 0 0 - - -;
#X obj 250 244 r steppos;
#X msg 858 -4 \; pitchtable const 0 \;;
#X obj 268 503 s comctl;
#X msg 266 453 201 1;
#X floatatom 160 201 5 0 0 0 - - -;
#X obj 357 239 t b b;
#X msg 357 268 1;
#X obj 357 331 s comctl;
#X msg 384 300 207;
#X obj 230 173 t b b;
#X obj 250 303 int;
#X obj 121 295 float;
#X obj 205 305 t b f;
#X obj 364 206 bng 15 250 50 0 empty empty empty 17 7 0 10 -262144
-1 -1;
#X msg 378 529 1;
#X obj 390 444 tgl 15 0 empty empty empty 17 7 0 10 -262144 -1 -1 0
1;
#X obj 380 486 metro 2000;
#X floatatom 335 694 5 0 0 0 - - -;
#X obj 381 558 +;
#X obj 423 541 int;
#X obj 382 630 mod 3;
#X obj 444 669 sel 0 1 2;
#X obj 505 719 s sample;
#X obj 419 194 r sample;
#X obj 417 724 s move;
#X obj 104 600 r move;
#X obj 467 735 s pick;
#X obj 89 379 r pick;
#X obj 427 230 bng 15 250 50 0 empty empty empty 17 7 0 10 -262144
-1 -1;
#X obj 311 298 bng 15 250 50 0 empty empty empty 17 7 0 10 -262144
-1 -1;
#X floatatom 56 305 5 0 0 0 - - -;
#X obj 250 274 / 200;
#X obj 380 599 moses 0;
#X floatatom 330 577 5 0 0 0 - - -;
#X obj 273 638 s home;
#X obj 258 418 r home;
#X obj 261 764 s comctl;
#X msg 266 701 204 50;
#X msg 423 515 -8;
#X obj 256 598 sel -7 -4 -3 -2 -1;
#X obj 471 327 tabread pitchtable;
#X floatatom 477 371 5 0 0 0 - - -;
#X floatatom 474 294 5 0 0 0 - - -;
#X obj 485 258 pipe 50;
#X floatatom 527 306 5 0 0 0 - - -;
#X msg 436 462 1000;
#X obj 529 286 * 20;
#X obj 838 251 r pitch;
#X obj 677 419 s pick;
#X msg 625 421;
#X floatatom 904 303 7 0 0 0 - - -;
#X obj 844 310 int;
#X obj 838 423 <;
#X obj 803 425 >;
#X floatatom 803 485 5 0 0 0 - - -;
#X floatatom 848 486 5 0 0 0 - - -;
#X obj 687 364 b;
#X obj 795 726 s comctl;
#X msg 802 635 203 0;
#X msg 844 659 203 1;
#X msg 754 669 205 \$1;
#X obj 838 522 sel 1;
#X obj 802 519 sel 1;
#X obj 771 424 ==;
#X floatatom 768 489 5 0 0 0 - - -;
#X obj 599 644 tabwrite pitchtable;
#X obj 752 461 sel 1;
#X obj 674 203 tgl 15 0 empty empty empty 17 7 0 10 -262144 -1 -1 0
1;
#X msg 833 50 0;
#X obj 647 444 t b b;
#X msg 647 473 1;
#X obj 647 536 s comctl;
#X msg 674 505 207;
#X obj 654 411 bng 15 250 50 0 empty empty empty 17 7 0 10 -262144
-1 -1;
#X obj 590 535 r steppos;
#X obj 901 400 -;
#X floatatom 973 416 5 0 0 0 - - -;
#X obj 908 455 *;
#X obj 906 426 t f f;
#X obj 909 481 sqrt;
#X floatatom 993 519 5 0 0 0 - - -;
#X floatatom 892 548 5 0 0 0 - - -;
#X obj 942 550 int;
#X obj 751 599 int;
#X obj 615 245 sel 1;
#X obj 621 352 s comctl;
#X floatatom 931 635 5 0 0 0 - - -;
#X obj 745 368 t b f f f f;
#X floatatom 727 708 5 0 0 0 - - -;
#X obj 733 510 bng 15 250 50 0 empty empty empty 17 7 0 10 -262144
-1 -1;
#X obj 742 559 delay 10;
#X msg 106 625 199;
#X msg 716 127 1;
#X obj 719 156 +;
#X obj 761 139 int;
#X floatatom 646 155 5 0 0 0 - - -;
#X obj 705 290 int;
#X obj 763 113 - 1;
#X obj 719 176 t f f;
#X obj 746 199 <= 48;
#X obj 763 -2 t f f b;
#X obj 765 -35 bng 15 250 50 0 empty empty empty 17 7 0 10 -262144
-1 -1;
#X obj 686 226 change;
#X obj 739 83 t b f f;
#X obj 681 331 bng 15 250 50 0 empty empty empty 17 7 0 10 -262144
-1 -1;
#X obj 705 254 metro 1500;
#X obj 688 174 bng 15 250 50 0 empty empty empty 17 7 0 10 -262144
-1 -1;
#X obj 748 339 pipe 750;
#X obj 808 247 / 2;
#X msg 820 153 2500;
#X obj 893 158 s comctl;
#X msg 891 108 201 1;
#X obj 883 73 r home;
#X obj 843 281 * 10;
#X obj 728 318 * 10;
#X obj 590 562 spigot;
#X obj 590 594 t f b;
#X msg 635 611 0;
#X msg 643 562 1;
#X msg 777 634 64;
#X obj 937 577 clip 1 100;
#X msg 620 304 204 199;
#X msg 98 517 210 95;
#X msg 738 45 24;
#X msg 783 46 36;
#X obj 922 518 * 2;
#X msg 83 478 210 60;
#X connect 1 0 0 0;
#X connect 2 0 0 0;
#X connect 3 0 0 0;
#X connect 5 0 6 0;
#X connect 6 0 138 0;
#X connect 6 1 134 0;
#X connect 7 0 23 1;
#X connect 12 0 43 0;
#X connect 15 0 14 0;
#X connect 17 0 18 0;
#X connect 17 1 20 0;
#X connect 18 0 19 0;
#X connect 20 0 19 0;
#X connect 21 1 17 0;
#X connect 22 0 24 0;
#X connect 22 0 11 0;
#X connect 23 0 10 0;
#X connect 24 0 23 0;
#X connect 24 1 9 1;
#X connect 24 1 55 0;
#X connect 25 0 17 0;
#X connect 26 0 30 0;
#X connect 27 0 28 0;
#X connect 28 0 26 0;
#X connect 30 0 31 0;
#X connect 30 0 44 0;
#X connect 30 0 45 0;
#X connect 30 0 51 0;
#X connect 31 0 30 1;
#X connect 32 0 29 0;
#X connect 32 0 33 0;
#X connect 33 0 36 0;
#X connect 33 1 38 0;
#X connect 33 2 34 0;
#X connect 35 0 17 0;
#X connect 35 0 40 0;
#X connect 37 0 103 0;
#X connect 39 0 5 0;
#X connect 42 0 9 0;
#X connect 43 0 16 0;
#X connect 43 0 22 0;
#X connect 43 0 41 0;
#X connect 44 1 32 0;
#X connect 47 0 15 0;
#X connect 49 0 48 0;
#X connect 50 0 31 0;
#X connect 51 0 46 0;
#X connect 51 1 1 0;
#X connect 51 2 49 0;
#X connect 51 3 38 0;
#X connect 51 4 34 0;
#X connect 52 0 53 0;
#X connect 54 0 52 0;
#X connect 54 0 58 0;
#X connect 55 0 54 0;
#X connect 57 0 28 1;
#X connect 58 0 56 0;
#X connect 59 0 125 0;
#X connect 63 0 62 0;
#X connect 63 0 65 1;
#X connect 63 0 64 1;
#X connect 63 0 75 1;
#X connect 63 0 87 1;
#X connect 64 0 67 0;
#X connect 64 0 73 0;
#X connect 65 0 66 0;
#X connect 65 0 74 0;
#X connect 68 0 60 0;
#X connect 70 0 69 0;
#X connect 71 0 69 0;
#X connect 72 0 69 0;
#X connect 73 0 71 0;
#X connect 74 0 70 0;
#X connect 75 0 76 0;
#X connect 75 0 78 0;
#X connect 78 0 80 0;
#X connect 78 0 81 0;
#X connect 78 0 118 0;
#X connect 78 0 130 0;
#X connect 79 0 96 0;
#X connect 79 0 114 0;
#X connect 80 0 104 0;
#X connect 81 0 82 0;
#X connect 81 1 84 0;
#X connect 82 0 83 0;
#X connect 84 0 83 0;
#X connect 85 0 81 0;
#X connect 86 0 127 0;
#X connect 87 0 88 0;
#X connect 87 0 90 0;
#X connect 89 0 91 0;
#X connect 90 0 89 0;
#X connect 90 1 89 1;
#X connect 91 0 92 0;
#X connect 91 0 137 0;
#X connect 94 0 132 0;
#X connect 95 0 72 0;
#X connect 95 0 100 0;
#X connect 96 0 133 0;
#X connect 99 0 101 0;
#X connect 99 1 75 0;
#X connect 99 2 65 0;
#X connect 99 3 64 0;
#X connect 99 4 87 0;
#X connect 101 0 102 0;
#X connect 102 0 95 0;
#X connect 103 0 3 0;
#X connect 104 0 105 0;
#X connect 105 0 106 0;
#X connect 105 0 107 0;
#X connect 105 0 110 0;
#X connect 106 0 105 1;
#X connect 108 0 68 0;
#X connect 108 0 77 1;
#X connect 108 0 116 0;
#X connect 108 0 126 0;
#X connect 109 0 106 0;
#X connect 110 0 108 1;
#X connect 110 1 111 0;
#X connect 111 0 79 0;
#X connect 112 0 135 0;
#X connect 112 1 136 0;
#X connect 112 2 13 0;
#X connect 113 0 112 0;
#X connect 114 0 117 0;
#X connect 115 0 104 0;
#X connect 115 1 109 0;
#X connect 115 2 108 1;
#X connect 117 0 108 0;
#X connect 119 0 99 0;
#X connect 120 0 119 1;
#X connect 121 0 117 1;
#X connect 121 0 120 0;
#X connect 123 0 122 0;
#X connect 124 0 123 0;
#X connect 125 0 63 0;
#X connect 126 0 119 0;
#X connect 127 0 128 0;
#X connect 128 0 77 0;
#X connect 128 1 129 0;
#X connect 129 0 127 1;
#X connect 130 0 127 1;
#X connect 131 0 72 0;
#X connect 132 0 95 1;
#X connect 132 0 98 0;
#X connect 133 0 97 0;
#X connect 134 0 4 0;
#X connect 135 0 115 0;
#X connect 136 0 111 1;
#X connect 137 0 93 0;
#X connect 137 0 94 0;
#X connect 138 0 4 0;
#X restore 255 -13 pd pitchscanner;
#X obj 438 -7 s pitch;
#X obj 389 -57 helmholtz~ 2048 1;
#N canvas 37 87 664 686 servo 0;
#X obj 123 318 s comctl;
#X obj 183 77 tgl 15 0 empty empty empty 17 7 0 10 -262144 -1 -1 1
1;
#X obj 181 100 sel 0 1;
#X obj 193 -72 inlet;
#X msg 389 148 150;
#X obj 188 -47 unpack;
#X obj 184 57 b;
#X floatatom 332 94 5 0 0 0 - - -;
#X obj 218 15 int;
#X floatatom 139 9 5 0 0 0 - - -;
#X obj 234 46 > 0;
#X obj 126 44 sel 0 1;
#X obj 182 175 int;
#X msg 241 145 87;
#X msg 129 276 210 \$1;
#X msg 138 215 \$1;
#X msg 186 226 -7;
#X obj 179 -14 sel 12;
#X msg 155 143 86;
#X obj 138 241 + -7;
#X msg 298 140 96;
#X msg 114 145 75;
#X connect 1 0 2 0;
#X connect 2 0 21 0;
#X connect 2 1 20 0;
#X connect 3 0 5 0;
#X connect 5 0 9 0;
#X connect 5 0 17 0;
#X connect 5 1 8 1;
#X connect 6 0 1 0;
#X connect 8 0 7 0;
#X connect 8 0 10 0;
#X connect 10 0 11 0;
#X connect 11 0 12 0;
#X connect 11 1 1 0;
#X connect 12 0 15 0;
#X connect 13 0 12 1;
#X connect 14 0 0 0;
#X connect 15 0 19 0;
#X connect 16 0 19 1;
#X connect 17 0 8 0;
#X connect 18 0 12 1;
#X connect 19 0 14 0;
#X connect 20 0 15 0;
#X connect 20 0 13 0;
#X connect 21 0 15 0;
#X connect 21 0 18 0;
#X restore 272 -65 pd servo;
#X obj 272 -92 pack;
#X obj 272 -143 notein 2;
#X msg 17 -41 open 32;
#X msg 17 -13 close;
#X obj 17 38 comport 1 115200;
#X msg 17 -69 devices;
#X obj 17 9 r comctl;
#X obj 17 -150 loadbang;
#X msg 28 -121 jpnevulator --tty /dev/ttyUSB0;
#X obj 31 -93 shell;
#X obj 17 62 s comrcv;
#X floatatom 396 -2 5 0 0 0 - - -;
#N canvas 37 87 1329 686 stepper 0;
#X obj 198 -98 inlet;
#X obj 198 -37 unpack;
#X obj 216 31 int;
#X obj 216 161 s comctl;
#X obj 198 -4 sel 23;
#X msg 216 102 202 \$1;
#X obj 442 -35 unpack;
#X obj 460 33 int;
#X obj 442 -2 sel 22;
#X obj 460 90 sel 1;
#X msg 460 121 201 1;
#X obj 216 58 sel 0;
#X obj 216 81 > 1;
#X obj 460 61 > 1;
#X text 225 120 on/off;
#X obj 54 -7 midirealtimein;
#X obj 54 40 sel 248 250 252;
#X msg 27 98 202 1;
#X msg 112 82 202 2;
#X obj 542 156 s comctl;
#X msg 542 116 204 \$1;
#X obj 542 -51 ctlin;
#X obj 542 27 spigot;
#X obj 555 -12 == 1;
#X obj 542 53 + 60;
#X text 549 133 speed;
#X obj 542 79 clip 60 199;
#X obj 278 -7 stripnote;
#X obj 323 99 tabread pitchtable;
#X obj 323 124 / 10;
#X obj 323 71 clip 24 36;
#X obj 290 -42 unpack;
#X obj 278 42 moses 24;
#X obj 458 156 s comctl;
#X text 465 139 home;
#X obj 323 402 s comctl;
#X obj 350 258 int;
#X obj 323 190 t f f;
#X obj 323 229 -;
#X obj 350 229 / 100;
#X obj 378 275 * 100;
#X msg 350 342 208 \$1;
#X msg 323 311 209 \$1;
#X obj 323 283 int;
#X obj 338 160 r 2pos;
#X text 347 373 position;
#X obj 657 73 bng 15 250 50 0 empty empty empty 17 7 0 10 -262144 -1
-1;
#X obj 657 99 t b b;
#X msg 657 127 1;
#X obj 657 194 s comctl;
#X obj 657 13 tgl 15 0 empty empty empty 17 7 0 10 -262144 -1 -1 0
1;
#X msg 684 152 207;
#X obj 657 42 metro 1000;
#X obj 763 -18 sel 255;
#X obj 803 73 list;
#X obj 802 21 list prepend;
#X obj 763 90 list;
#X obj 763 116 unpack 0 0 0;
#X obj 763 153 * 1000;
#X obj 796 178 * 10;
#X obj 796 209 +;
#X obj 763 237 +;
#X obj 699 73 delay 50;
#X obj 763 262 s steppos;
#X obj 763 4 t b b;
#X obj 763 47 delay 50;
#X obj 763 -44 r comrcv;
#X text 678 171 get pot;
#X obj 27 152 s comctl;
#X text 99 125 on/off;
#X connect 0 0 1 0;
#X connect 0 0 6 0;
#X connect 0 0 31 0;
#X connect 1 0 4 0;
#X connect 1 1 2 1;
#X connect 2 0 11 0;
#X connect 4 0 2 0;
#X connect 5 0 3 0;
#X connect 6 0 8 0;
#X connect 6 1 7 1;
#X connect 7 0 13 0;
#X connect 8 0 7 0;
#X connect 9 0 10 0;
#X connect 10 0 33 0;
#X connect 11 1 12 0;
#X connect 12 0 5 0;
#X connect 13 0 9 0;
#X connect 16 1 17 0;
#X connect 16 2 18 0;
#X connect 17 0 68 0;
#X connect 18 0 68 0;
#X connect 20 0 19 0;
#X connect 21 0 22 0;
#X connect 21 1 23 0;
#X connect 22 0 24 0;
#X connect 23 0 22 1;
#X connect 24 0 26 0;
#X connect 26 0 20 0;
#X connect 27 0 32 0;
#X connect 28 0 29 0;
#X connect 29 0 37 0;
#X connect 30 0 28 0;
#X connect 31 0 27 0;
#X connect 31 1 27 1;
#X connect 32 1 30 0;
#X connect 36 0 40 0;
#X connect 36 0 41 0;
#X connect 37 0 38 0;
#X connect 37 1 39 0;
#X connect 38 0 43 0;
#X connect 39 0 36 0;
#X connect 40 0 38 1;
#X connect 41 0 35 0;
#X connect 42 0 35 0;
#X connect 43 0 42 0;
#X connect 44 0 37 0;
#X connect 46 0 47 0;
#X connect 47 0 48 0;
#X connect 47 1 51 0;
#X connect 48 0 49 0;
#X connect 50 0 52 0;
#X connect 51 0 49 0;
#X connect 52 0 46 0;
#X connect 52 0 62 0;
#X connect 53 0 64 0;
#X connect 53 1 55 0;
#X connect 54 0 55 1;
#X connect 54 0 56 1;
#X connect 55 0 54 0;
#X connect 56 0 57 0;
#X connect 57 0 58 0;
#X connect 57 1 59 0;
#X connect 57 2 60 1;
#X connect 58 0 61 0;
#X connect 59 0 60 0;
#X connect 60 0 61 1;
#X connect 61 0 63 0;
#X connect 62 0 56 0;
#X connect 64 0 54 1;
#X connect 64 0 65 0;
#X connect 64 1 55 1;
#X connect 65 0 56 0;
#X connect 66 0 53 0;
#X restore 272 -41 pd stepper;
#X text 75 115 midi commands;
#X text 74 145 24-36 pitch 23 step enable 22 home 12 NoteOn_NoteOff
CC1 Speed;
#X connect 2 0 0 0;
#X connect 3 0 7 0;
#X connect 3 1 7 1;
#X connect 4 0 11 0;
#X connect 5 0 4 1;
#X connect 7 0 4 0;
#X connect 8 0 10 0;
#X connect 8 0 24 0;
#X connect 11 1 8 0;
#X connect 13 0 12 0;
#X connect 13 0 25 0;
#X connect 14 0 13 0;
#X connect 14 1 13 1;
#X connect 15 0 17 0;
#X connect 16 0 17 0;
#X connect 17 0 23 0;
#X connect 18 0 17 0;
#X connect 19 0 17 0;
#X connect 20 0 15 0;
#X connect 20 0 21 0;
#X connect 21 0 22 0;
