#N canvas 47 82 1873 998 10;
#X obj 563 150 seq/clock;
#X obj 1265 51 seq/help;
#N canvas 645 82 936 998 output 0;
#X obj 154 160 unpack;
#X obj 154 487 s stepper1;
#X obj 154 393 tabread pitchtable;
#X msg 154 422 pos \$1;
#X msg 187 460 spd \$1;
#X obj 154 122 r channel1-1;
#X obj 154 214 - 1;
#X floatatom 199 215 5 0 0 0 - - -, f 5;
#X obj 344 156 unpack;
#X floatatom 389 211 5 0 0 0 - - -, f 5;
#X obj 344 118 r channel1-2;
#X obj 342 483 s pick;
#X obj 344 232 sel 1 2 3;
#X msg 344 282 hit;
#X msg 375 282 mute;
#X msg 408 282 unmute;
#X obj 474 153 unpack;
#X obj 474 115 r channel1-3;
#X obj 507 476 s kickup;
#X obj 575 154 unpack;
#X obj 575 116 r channel1-4;
#X obj 608 480 s stepper2;
#X msg 608 389 pos \$1;
#X msg 720 390 spd \$1;
#X obj 608 313 * 1000;
#X obj 687 153 unpack;
#X obj 687 116 r channel1-5;
#X connect 0 0 6 0;
#X connect 0 0 7 0;
#X connect 0 1 4 0;
#X connect 2 0 3 0;
#X connect 3 0 1 0;
#X connect 4 0 1 0;
#X connect 5 0 0 0;
#X connect 6 0 2 0;
#X connect 8 0 9 0;
#X connect 8 0 12 0;
#X connect 10 0 8 0;
#X connect 12 0 13 0;
#X connect 12 1 14 0;
#X connect 12 2 15 0;
#X connect 13 0 11 0;
#X connect 14 0 11 0;
#X connect 15 0 11 0;
#X connect 16 1 18 0;
#X connect 17 0 16 0;
#X connect 19 1 24 0;
#X connect 20 0 19 0;
#X connect 22 0 21 0;
#X connect 23 0 21 0;
#X connect 24 0 22 0;
#X connect 25 1 23 0;
#X connect 26 0 25 0;
#X restore 1183 580 pd output;
#X msg 575 511 \; seq-1-1 seqEnd 16;
#X msg 567 319 2;
#X msg 608 321 1;
#X obj 112 111 seq/seqchannel \$1 1 \$2 18 25 40;
#X obj 112 731 seq/seqchannel \$1 3 \$2 18 0 40;
#X msg 565 355 \; seq-1-\$1 play 1 \; seq-1-\$1 timeSig 32 \; seq-1-\$1
seqEnd 16 \; seq-1-\$1 rnd pitch;
#X msg 650 319 3;
#X obj 111 815 seq/seqchannel \$1 4 \$2 18 0 40;
#X obj 435 803 seq/seqchannel \$1 5 \$2 18 0 40;
#X msg 577 553 \; seq-1-1 rnd pitch;
#X msg 604 668 \; seq-1-5 rnd all;
#X msg 602 616 \; seq-1-4 rnd all;
#X obj 112 640 seq/seqchannel \$1 2 \$2 18 3 0;
#X connect 4 0 8 0;
#X connect 5 0 8 0;
#X connect 9 0 8 0;
#X coords 0 -1 1 1 700 800 1 100 100;
