#N canvas 47 97 1321 714 10;
#X obj 337 191 s comctl;
#X text 343 214 speed;
#X text 149 203 home;
#X obj 243 507 s comctl;
#X obj 270 253 int;
#X obj 243 185 t f f;
#X obj 243 224 -;
#X obj 270 224 / 100;
#X obj 298 270 * 100;
#X obj 243 317 int;
#X obj 757 287 bng 15 250 50 0 empty empty empty 17 7 0 10 -262144
-1 -1;
#X obj 447 191 s comctl;
#X obj 554 166 tgl 15 0 empty empty empty 17 7 0 10 -262144 -1 -1 0
1;
#X obj 559 205 metro 1000;
#X obj 705 236 list;
#X obj 704 184 list prepend;
#X obj 665 253 list;
#X obj 665 279 unpack 0 0 0;
#X obj 665 316 * 1000;
#X obj 698 341 * 10;
#X obj 698 372 +;
#X obj 665 400 +;
#X obj 601 236 delay 50;
#X obj 665 167 t b b;
#X obj 665 210 delay 50;
#X obj 665 76 r comrcv;
#X text 444 214 get pos;
#X text 268 480 go2position;
#X text 73 206 on/off;
#X obj 67 185 s comctl;
#X obj 67 147 pack;
#X obj 67 114 int;
#X obj 67 62 t b f;
#X obj 82 90 r \$0-enbl;
#X obj 410 -293 bng 15 250 50 0 empty empty empty 17 7 0 10 -262144
-1 -1;
#X obj 484 -217 \$0;
#X obj 143 183 s comctl;
#X obj 143 145 pack;
#X obj 143 112 int;
#X obj 143 60 t b f;
#X obj 158 88 r \$0-home;
#X msg 170 113 1;
#X obj 337 166 pack;
#X obj 337 133 int;
#X obj 337 31 t b f;
#X obj 352 109 r \$0-spd;
#X obj 447 140 pack;
#X obj 447 107 int;
#X obj 447 55 t b f;
#X msg 474 108 1;
#X obj 243 281 t b f;
#X obj 243 355 pack;
#X obj 243 252 int;
#X obj 293 364 int;
#X obj 293 328 t b f;
#X obj 293 402 pack;
#X obj 305 297 r \$0-posB;
#X obj 333 344 r \$0-posA;
#X obj 484 -154 spigot;
#X obj 529 -181 == 1;
#X obj 529 -211 \$1;
#X obj 485 -271 loadbang;
#X obj 511 -125 spigot;
#X obj 484 -189 t f f;
#X obj 484 -244 t b b;
#X obj 544 -155 == 2;
#X obj 67 -103 r stepper\$1;
#X obj 685 103 r \$0-rxpos;
#X obj 665 145 sel;
#X obj 665 425 s steppos\$1;
#X msg 482 -71 \; \$1-enbl 202 \; \$1-home 201 \; \$1-spd 203 \; \$1-getpos
204 \; \$1-posA 205 \; \$1-posB 206 \; \$1-rxpos 255;
#X msg 582 -73 \; \$1-enbl 208 \; \$1-home 207 \; \$1-spd 209 \; \$1-getpos
210 \; \$1-posA 211 \; \$1-posB 212 \; \$1-rxpos 254;
#X obj 67 -53 route enbl home pos spd getpos;
#X obj 462 83 r \$0-getpos;
#X obj 364 56 clip 0.1 1;
#X obj 364 79 * 190;
#X connect 4 0 8 0;
#X connect 4 0 54 0;
#X connect 5 0 6 0;
#X connect 5 1 7 0;
#X connect 6 0 52 0;
#X connect 7 0 4 0;
#X connect 8 0 6 1;
#X connect 9 0 51 0;
#X connect 12 0 13 0;
#X connect 13 0 10 0;
#X connect 13 0 22 0;
#X connect 14 0 15 1;
#X connect 14 0 16 1;
#X connect 15 0 14 0;
#X connect 16 0 17 0;
#X connect 17 0 18 0;
#X connect 17 1 19 0;
#X connect 17 2 20 1;
#X connect 18 0 21 0;
#X connect 19 0 20 0;
#X connect 20 0 21 1;
#X connect 21 0 69 0;
#X connect 22 0 16 0;
#X connect 23 0 14 1;
#X connect 23 0 24 0;
#X connect 23 1 15 1;
#X connect 24 0 16 0;
#X connect 25 0 68 0;
#X connect 30 0 29 0;
#X connect 31 0 30 0;
#X connect 32 0 31 0;
#X connect 32 1 30 1;
#X connect 33 0 31 1;
#X connect 34 0 64 0;
#X connect 35 0 63 0;
#X connect 37 0 36 0;
#X connect 38 0 37 0;
#X connect 39 0 38 0;
#X connect 39 1 41 0;
#X connect 40 0 38 1;
#X connect 41 0 37 1;
#X connect 42 0 0 0;
#X connect 43 0 42 0;
#X connect 44 0 43 0;
#X connect 44 1 74 0;
#X connect 45 0 43 1;
#X connect 46 0 11 0;
#X connect 47 0 46 0;
#X connect 48 0 47 0;
#X connect 48 1 49 0;
#X connect 49 0 46 1;
#X connect 50 0 9 0;
#X connect 50 1 51 1;
#X connect 51 0 3 0;
#X connect 52 0 50 0;
#X connect 53 0 55 0;
#X connect 54 0 53 0;
#X connect 54 1 55 1;
#X connect 55 0 3 0;
#X connect 56 0 9 1;
#X connect 57 0 53 1;
#X connect 58 0 70 0;
#X connect 59 0 58 1;
#X connect 60 0 59 0;
#X connect 60 0 65 0;
#X connect 61 0 64 0;
#X connect 62 0 71 0;
#X connect 63 0 58 0;
#X connect 63 1 62 0;
#X connect 64 0 35 0;
#X connect 64 1 60 0;
#X connect 65 0 62 1;
#X connect 66 0 72 0;
#X connect 67 0 68 1;
#X connect 68 0 23 0;
#X connect 68 1 15 0;
#X connect 72 0 32 0;
#X connect 72 1 39 0;
#X connect 72 2 5 0;
#X connect 72 3 44 0;
#X connect 72 4 48 0;
#X connect 73 0 47 1;
#X connect 74 0 75 0;
#X connect 75 0 42 1;
