#N canvas 778 92 776 818 10;
#X obj 293 -163 s \$0-pitches;
#X obj 214 -183 s \$0-sizeX;
#X obj 394 -181 s \$0-sizeVel;
#X obj 19 -211 until;
#X msg 19 -166 1;
#X obj 19 -136 +;
#X obj 51 -153 int;
#X obj 91 -64 r \$0-sizeX;
#X obj 236 -31 int;
#X obj 251 -62 r \$0-pitches;
#X obj 425 -31 int;
#X obj 440 -62 r \$0-sizeVel;
#X msg 34 -186 -1;
#X obj 134 -192 s \$0-steps;
#X obj 19 -270 r \$0-steps;
#X obj -119 -96 r \$0-sizeX;
#X obj 484 -187 s \$0-spacing;
#X obj 19 -106 t f f f f f;
#X obj 19 -26 \$1;
#X obj 170 -32 \$1;
#X obj 356 -32 \$1;
#X obj -199 -58 \$1;
#X obj -82 -67 r \$0-posY;
#X obj -172 -146 spigot;
#X obj -136 -206 loadbang;
#X obj 167 -478 r \$0-sizeX;
#X obj 129 -431 *;
#X obj 129 -454 t b f;
#X obj 130 -515 r \$0-pitches;
#X obj 129 -404 +;
#X obj 142 -378 +;
#X obj 187 -434 r \$0-spacing;
#X obj 176 -457 r \$0-sizeVel;
#X obj 130 -491 + 1;
#X obj 346 -454 sel 0;
#X obj 346 -475 r \$0-pitches;
#X msg 346 -428 1;
#X msg 374 -426 0.5;
#X obj 346 -400 t b f;
#X obj 131 -288 s channelsizeX;
#X obj 131 -346 t b f;
#X obj 43 -26 \$2;
#X obj 19 4 pack f f f f;
#X obj 19 -60 t b b f b;
#X obj -191 -28 pack f f f f f;
#X obj 368 6 pack f f f f;
#X obj 368 -68 t b b f b;
#X obj 381 -32 \$2;
#X obj 179 6 pack f f f f;
#X obj 179 -58 t b b f b;
#X obj 194 -31 \$2;
#X obj 131 -315 pack \$2 f;
#X obj 19 -238 t b f b;
#X obj -170 -236 r generate;
#X msg -130 -181 1;
#X obj 189 -389 *;
#X msg 188 -412 5;
#X text 215 -414 needs improving;
#X obj 326 -312 t b b b b b b;
#X msg -195 -123 8;
#X obj 368 -355 loadbang;
#X obj 332 -355 bng 15 250 50 0 empty empty empty 17 7 0 10 -262144
-1 -1;
#X msg 19 64 \; cell-\$1-\$2-\$3 sizeX \$4;
#X msg 175 62 \; cell-\$1-\$2-\$3 pitches \$4;
#X msg 366 61 \; cell-\$1-\$2-\$3 sizeVel \$4;
#X obj -173 75 s seqmodule-\$1-\$2;
#X msg -177 24 obj \$4 0 seqcell \$1 \$2 \$3;
#X obj 162 -231 \$3;
#X obj 237 -235 \$4;
#X obj 311 -238 \$5;
#X obj 386 -240 \$6;
#X obj 490 -241 \$7;
#X obj -134 -65 * \$4;
#X obj 76 -33 \$4;
#X obj -191 -92 t b b f f;
#X obj -175 -60 \$2;
#X connect 3 0 4 0;
#X connect 4 0 5 0;
#X connect 5 0 6 0;
#X connect 5 0 17 0;
#X connect 6 0 5 1;
#X connect 7 0 73 1;
#X connect 8 0 48 3;
#X connect 9 0 8 1;
#X connect 10 0 45 3;
#X connect 11 0 10 1;
#X connect 12 0 5 1;
#X connect 14 0 52 0;
#X connect 17 0 43 0;
#X connect 17 1 49 0;
#X connect 17 2 46 0;
#X connect 17 4 23 0;
#X connect 18 0 42 0;
#X connect 19 0 48 0;
#X connect 20 0 45 0;
#X connect 21 0 44 0;
#X connect 22 0 44 4;
#X connect 23 0 74 0;
#X connect 24 0 54 0;
#X connect 25 0 27 0;
#X connect 26 0 29 0;
#X connect 27 0 26 0;
#X connect 27 1 26 1;
#X connect 28 0 33 0;
#X connect 29 0 40 0;
#X connect 31 0 56 0;
#X connect 32 0 29 1;
#X connect 33 0 26 0;
#X connect 34 0 36 0;
#X connect 34 1 37 0;
#X connect 35 0 34 0;
#X connect 36 0 38 0;
#X connect 37 0 38 0;
#X connect 38 0 55 0;
#X connect 38 1 55 1;
#X connect 40 0 51 0;
#X connect 40 1 51 1;
#X connect 41 0 42 1;
#X connect 42 0 62 0;
#X connect 43 0 18 0;
#X connect 43 1 41 0;
#X connect 43 2 42 2;
#X connect 43 3 73 0;
#X connect 44 0 66 0;
#X connect 45 0 64 0;
#X connect 46 0 20 0;
#X connect 46 1 47 0;
#X connect 46 2 45 2;
#X connect 46 3 10 0;
#X connect 47 0 45 1;
#X connect 48 0 63 0;
#X connect 49 0 19 0;
#X connect 49 1 50 0;
#X connect 49 2 48 2;
#X connect 49 3 8 0;
#X connect 50 0 48 1;
#X connect 52 1 3 0;
#X connect 52 2 12 0;
#X connect 53 0 23 1;
#X connect 54 0 23 1;
#X connect 55 0 30 1;
#X connect 56 0 55 0;
#X connect 58 0 67 0;
#X connect 58 2 68 0;
#X connect 58 3 69 0;
#X connect 58 4 70 0;
#X connect 58 5 71 0;
#X connect 59 0 74 0;
#X connect 60 0 58 0;
#X connect 61 0 58 0;
#X connect 66 0 65 0;
#X connect 67 0 13 0;
#X connect 68 0 1 0;
#X connect 69 0 0 0;
#X connect 70 0 2 0;
#X connect 71 0 16 0;
#X connect 72 0 44 3;
#X connect 73 0 42 3;
#X connect 74 0 21 0;
#X connect 74 1 75 0;
#X connect 74 2 44 2;
#X connect 74 3 72 0;
#X connect 75 0 44 1;
