#N canvas 47 87 936 998 10;
#X obj 0 435 vsl 18 54 0 1 0 0 empty \$0-velocity empty 0 0 0 10 -99865
-260818 -166441 0 1;
#X obj 0 0 vradio 18 1 0 24 empty \$0-pitch empty 0 -8 0 10 -66577
-260818 -166441 11;
#X obj 1299 350 r \$0-pitches;
#X obj 1299 423 \$0;
#X obj 305 -487 r \$0-sizeX;
#X obj 332 -414 pack;
#X obj 418 -549 r \$0-sizeX;
#X obj 384 -492 *;
#X obj 384 -515 t b f;
#X obj 385 -576 r \$0-pitches;
#X obj 384 -465 +;
#X obj 658 164 \$0;
#X obj 725 16 r \$0-pitches;
#X obj 658 62 *;
#X obj 658 90 +;
#X obj 658 35 r \$0-sizeX;
#X obj 0 492 tgl 18 0 empty \$0-act empty 17 7 0 10 -166441 -166441
-166441 1 1;
#X obj 383 755 spigot;
#X obj 693 73 r \$0-sizeVel;
#X obj 416 -482 r \$0-sizeVel;
#X msg 278 -378 dirty 0;
#X text 587 -382 xUnit yUnit GraphMe (0-2) xFrom yFrom xTo yTo xSize
ySize Xmargin Ymargin;
#X obj 385 -552 + 1;
#X obj 305 -461 t b f;
#X msg 658 264 \; \$1-act pos 0 \$2;
#X msg 658 235 \$1 \$2;
#X obj 658 195 pack f f;
#X obj 658 125 t b f;
#X obj 795 165 \$0;
#X msg 795 236 \$1 \$2;
#X obj 795 196 pack f f;
#X obj 795 126 t b f;
#X msg 795 265 \; \$1-act size \$2;
#X obj 795 98 r \$0-sizeX;
#X obj 707 417 \$0;
#X msg 707 488 \$1 \$2;
#X obj 707 448 pack f f;
#X obj 707 378 t b f;
#X obj 707 350 r \$0-sizeX;
#X msg 707 517 \; \$1-pitch size \$2;
#X obj 1243 189 \$0;
#X obj 1243 150 t b f;
#X obj 1243 113 r \$0-sizeX;
#X msg 1243 289 \; \$1-velocity size \$2 \$3;
#X obj 1243 220 pack f f f;
#X obj 1300 157 r \$0-sizeVel;
#X msg 1243 260 \$1 \$2 \$3;
#X obj 944 202 \$0;
#X obj 944 163 t b f;
#X obj 1003 21 r \$0-pitches;
#X obj 939 55 *;
#X obj 939 21 r \$0-sizeX;
#X obj 944 233 pack f f;
#X msg 944 273 \$1 \$2;
#X msg 944 294 \; \$1-velocity pos 0 \$2;
#X obj 848 342 r \$0-sizeX;
#X obj 848 425 \$0;
#X obj 1299 455 pack f f;
#X obj 1299 381 t b f;
#X msg 1299 490 \$1 \$2;
#X msg 1299 513 \; \$1-pitch number \$2;
#X obj 725 45 + 0;
#X obj 746 -74 s \$0-pitches;
#X obj 832 -77 s \$0-sizeX;
#X obj 904 -74 s \$0-sizeVel;
#X obj 136 68 \$0;
#X msg 138 185 \; \$1-pitch color \$2 \$3 \$4;
#X msg 138 156 \$1 \$2 \$3 \$4;
#X obj 338 721 spigot;
#X obj 338 750 int;
#X obj 138 24 t b f f;
#X obj 340 663 t b b;
#X obj 338 924 pack f f;
#X obj 989 180 spigot;
#X obj 1022 107 r \$0-sizeVel;
#X obj 1022 134 != 0;
#X obj 1035 172 sel 0;
#X obj 1095 192 \$0;
#X obj 1095 223 pack f f;
#X msg 1095 263 \$1 \$2;
#X obj 1097 157 t b f;
#X msg 1085 292 \; \$1-velocity \$2;
#X obj 755 384 r \$0-pitches;
#X msg 848 491 \$1 \$2;
#X obj 848 451 pack f f;
#X obj 889 427 spigot;
#X obj 905 368 != 0;
#X obj 940 366 sel 0;
#X obj 1007 434 \$0;
#X obj 1007 465 pack f f;
#X msg 1007 505 \$1 \$2;
#X obj 1009 399 t b f;
#X obj 848 370 t b b;
#X obj 920 335 r \$0-pitches;
#X msg 881 397 0;
#X msg 997 534 \; \$1-pitch \$2;
#X msg 1013 371 0;
#X msg 893 -171 50;
#X msg 849 518 \; \$1-pitch pos 0 \$2;
#X msg 797 -176 20;
#X obj 891 -341 route pitch vel act;
#X obj 846 -263 s \$0-pitch;
#X obj 1010 -241 s \$0-act;
#X obj 903 -222 s \$0-velocity;
#X msg 1035 216 1000;
#X msg 944 426 1000;
#X obj 67 437 -;
#X obj 67 413 int;
#X obj 67 382 t b f;
#X obj 83 355 r \$0-pitches;
#X msg 732 -170 12;
#X msg 316 156 \$1 \$2 \$3 \$4;
#X msg 315 226 \; \$1-velocity color \$2 \$3 \$4;
#X msg 494 152 \$1 \$2 \$3 \$4;
#X msg 493 265 \; \$1-act color \$2 \$3 \$4;
#X msg 367 71 2;
#X obj 138 116 pack f f 14 1;
#X obj 151 -16 +;
#X obj 216 47 sel 0 1 2;
#X obj 377 47 sel 0 1 2;
#X obj 552 -14 sel 0 1 2;
#X obj 138 -51 sel 0;
#X msg 123 -23 0;
#X msg 267 72 0;
#X msg 428 72 0;
#X obj 316 116 pack f f 14 1;
#X msg 206 72 2;
#X msg 235 70 11;
#X msg 396 70 11;
#X obj 758 -146 route pitches sizeX sizeVel;
#X obj 331 -348 s seqcell-\$1-\$2-\$3;
#X obj 48 -523 namecanvas seqcell-\$1-\$2-\$3;
#X obj 773 -296 t a a;
#X obj 338 952 s channel\$1-\$2;
#X obj 340 633 sel 2;
#X msg 201 452 \; \$1-pitch color 2 14 1;
#X obj 137 -86 change;
#X obj 276 339 \$2;
#X obj 257 383 sel 1 2 3 4 5;
#X msg 387 522 \; \$1-velocity color 2 14 1;
#X msg 367 366 \; \$1-pitch color 2 14 1;
#X msg 364 416 \; \$1-velocity color 2 14 1;
#X msg 529 363 \; \$1-pitch color 2 14 1;
#X msg 526 413 \; \$1-velocity color 2 14 1;
#X msg 387 471 \; \$1-pitch color 1 14 1;
#X obj 201 406 \$0;
#X obj 181 328 bng 15 250 50 0 empty empty empty 17 7 0 10 -262144
-1 -1;
#X obj 227 279 r \$0-sizeX;
#X obj 206 357 b;
#X msg 201 498 \; \$1-velocity color 21 14 1;
#X msg 201 555 \; \$1-act color 1 22 1;
#X obj 465 -30 sel 0 1;
#X obj 494 112 pack f f 22 1;
#X obj 508 66 int;
#X obj 467 41 t f f;
#X obj 462 73 t b f;
#X obj 532 -50 r \$0-sizeX;
#X obj 1010 -265 sel 2;
#X obj 382 305 s edt_idx;
#X obj 359 -258 \$0;
#X msg 339 -129 \; \$1-pitch color \$2 \$3 \$4;
#X msg 338 -161 \$1 \$2 \$3 \$4;
#X obj 356 -298 t b f f;
#X msg 516 -161 \$1 \$2 \$3 \$4;
#X msg 495 -131 \; \$1-velocity color \$2 \$3 \$4;
#X obj 338 -201 pack f f 14 1;
#X obj 416 -270 sel 0 1 2;
#X obj 577 -270 sel 0 1 2;
#X msg 467 -245 0;
#X msg 628 -245 0;
#X obj 516 -201 pack f f 14 1;
#X msg 406 -245 2;
#X msg 435 -247 11;
#X msg 596 -247 11;
#X obj 237 -279 == \$3;
#X obj 236 -243 change;
#X obj 237 -302 r edt_idx;
#X obj 156 -287 == \$1;
#X obj 192 -250 +;
#X obj 198 -282 t b f;
#X obj 192 -227 == 2;
#X msg 567 -246 21;
#X obj 152 -320 r edt_seq;
#X obj 46 -30 r \$0-sizeX;
#X obj 52 -1 b;
#X obj 0 549 s \$0-toggle;
#X obj 465 -69 r \$0-toggle;
#X obj 810 -212 r \$0-toggle;
#X obj 924 -267 spigot;
#X obj 946 -305 r \$0-toggle;
#X floatatom 775 -105 5 0 0 0 - - -, f 5;
#X obj 773 -321 r cell-\$1-\$2-\$3;
#X obj 138 -135 r clock-\$1-\$2;
#X obj 138 -112 == \$3;
#X obj 383 782 f;
#X msg 1097 133 1;
#X obj 384 -431 + 0;
#X obj 1300 187 - 6;
#X msg 331 -378 donecanvasdialog 1 1 2 1 0 0 0 \$1 \$2 0 0;
#X obj 989 205 + 3;
#X msg 545 42 27;
#X msg 487 16 1;
#X msg 571 54 0;
#X msg 456 17 2;
#X obj -20 894 s cellstate-\$1-\$2;
#X obj -20 869 pack \$3 0 0 0;
#X obj -20 833 b;
#X obj -20 793 r cellstates-\$1-\$2;
#X obj 372 695 t f f;
#X obj 67 523 s \$0-actstate;
#X obj 64 492 s \$0-velstate;
#X obj 67 460 s \$0-pitchstate;
#X obj 31 711 r \$0-pitchstate;
#X obj 430 765 r \$0-velstate;
#X obj 403 655 r \$0-actstate;
#X obj 5 748 r \$0-actstate;
#X obj 186 -48 r \$0-actstate;
#X obj 55 822 r \$0-velstate;
#X obj 226 733 r \$0-pitchstate;
#X connect 0 0 210 0;
#X connect 1 0 108 0;
#X connect 2 0 58 0;
#X connect 3 0 57 0;
#X connect 4 0 23 0;
#X connect 5 0 198 0;
#X connect 6 0 8 0;
#X connect 7 0 10 0;
#X connect 8 0 7 0;
#X connect 8 1 7 1;
#X connect 9 0 22 0;
#X connect 10 0 196 0;
#X connect 11 0 26 0;
#X connect 12 0 61 0;
#X connect 13 0 14 0;
#X connect 14 0 27 0;
#X connect 15 0 13 0;
#X connect 16 0 185 0;
#X connect 16 0 209 0;
#X connect 17 0 194 0;
#X connect 18 0 14 1;
#X connect 19 0 10 1;
#X connect 20 0 130 0;
#X connect 22 0 7 0;
#X connect 23 0 20 0;
#X connect 23 1 5 0;
#X connect 25 0 24 0;
#X connect 26 0 25 0;
#X connect 27 0 11 0;
#X connect 27 1 26 1;
#X connect 28 0 30 0;
#X connect 29 0 32 0;
#X connect 30 0 29 0;
#X connect 31 0 28 0;
#X connect 31 1 30 1;
#X connect 33 0 31 0;
#X connect 34 0 36 0;
#X connect 35 0 39 0;
#X connect 36 0 35 0;
#X connect 37 0 34 0;
#X connect 37 1 36 1;
#X connect 38 0 37 0;
#X connect 40 0 44 0;
#X connect 41 0 40 0;
#X connect 41 1 44 1;
#X connect 42 0 41 0;
#X connect 44 0 46 0;
#X connect 45 0 197 0;
#X connect 46 0 43 0;
#X connect 47 0 52 0;
#X connect 48 0 47 0;
#X connect 48 1 73 0;
#X connect 49 0 50 1;
#X connect 50 0 48 0;
#X connect 51 0 50 0;
#X connect 52 0 53 0;
#X connect 53 0 54 0;
#X connect 55 0 92 0;
#X connect 56 0 84 0;
#X connect 57 0 59 0;
#X connect 58 0 3 0;
#X connect 58 1 57 1;
#X connect 59 0 60 0;
#X connect 61 0 13 1;
#X connect 65 0 152 0;
#X connect 67 0 66 0;
#X connect 68 0 69 0;
#X connect 69 0 72 0;
#X connect 70 0 65 0;
#X connect 70 1 118 0;
#X connect 70 1 119 0;
#X connect 70 1 120 0;
#X connect 70 2 134 0;
#X connect 71 0 68 0;
#X connect 71 1 17 0;
#X connect 72 0 133 0;
#X connect 73 0 199 0;
#X connect 74 0 75 0;
#X connect 75 0 73 1;
#X connect 75 0 76 0;
#X connect 76 0 104 0;
#X connect 76 0 195 0;
#X connect 77 0 78 0;
#X connect 78 0 79 0;
#X connect 79 0 81 0;
#X connect 80 0 77 0;
#X connect 80 1 78 1;
#X connect 83 0 98 0;
#X connect 84 0 83 0;
#X connect 85 0 84 1;
#X connect 86 0 85 1;
#X connect 87 0 105 0;
#X connect 87 0 96 0;
#X connect 88 0 89 0;
#X connect 89 0 90 0;
#X connect 90 0 95 0;
#X connect 91 0 88 0;
#X connect 91 1 89 1;
#X connect 92 0 56 0;
#X connect 92 1 94 0;
#X connect 93 0 86 0;
#X connect 93 0 87 0;
#X connect 94 0 85 0;
#X connect 96 0 91 0;
#X connect 97 0 64 0;
#X connect 99 0 63 0;
#X connect 100 0 101 0;
#X connect 100 1 188 0;
#X connect 100 1 103 0;
#X connect 100 2 157 0;
#X connect 104 0 52 1;
#X connect 105 0 84 1;
#X connect 106 0 211 0;
#X connect 107 0 106 0;
#X connect 108 0 107 0;
#X connect 108 1 106 1;
#X connect 109 0 107 1;
#X connect 110 0 62 0;
#X connect 111 0 112 0;
#X connect 113 0 114 0;
#X connect 115 0 125 1;
#X connect 116 0 67 0;
#X connect 117 0 70 0;
#X connect 118 0 126 0;
#X connect 118 1 127 0;
#X connect 118 2 123 0;
#X connect 119 0 115 0;
#X connect 119 1 128 0;
#X connect 119 2 124 0;
#X connect 120 0 153 0;
#X connect 120 1 200 0;
#X connect 120 2 202 0;
#X connect 121 0 122 0;
#X connect 121 1 117 0;
#X connect 122 0 70 0;
#X connect 123 0 116 1;
#X connect 124 0 125 1;
#X connect 125 0 111 0;
#X connect 126 0 116 1;
#X connect 127 0 116 1;
#X connect 128 0 125 1;
#X connect 129 0 62 0;
#X connect 129 0 190 0;
#X connect 129 1 63 0;
#X connect 129 2 64 0;
#X connect 132 0 129 0;
#X connect 132 1 100 0;
#X connect 134 0 71 0;
#X connect 136 0 121 0;
#X connect 138 2 140 0;
#X connect 138 3 142 0;
#X connect 140 0 141 0;
#X connect 142 0 143 0;
#X connect 144 0 139 0;
#X connect 145 0 135 0;
#X connect 145 0 149 0;
#X connect 145 0 150 0;
#X connect 146 0 145 0;
#X connect 147 0 148 0;
#X connect 148 0 145 0;
#X connect 151 0 203 0;
#X connect 151 1 201 0;
#X connect 152 0 113 0;
#X connect 153 0 152 1;
#X connect 153 0 152 2;
#X connect 154 0 155 0;
#X connect 154 1 153 1;
#X connect 155 0 152 0;
#X connect 155 1 152 1;
#X connect 155 1 152 2;
#X connect 156 0 203 0;
#X connect 157 0 102 0;
#X connect 157 1 102 0;
#X connect 159 0 165 0;
#X connect 159 0 170 0;
#X connect 161 0 160 0;
#X connect 162 0 159 0;
#X connect 162 1 166 0;
#X connect 162 1 167 0;
#X connect 163 0 164 0;
#X connect 165 0 161 0;
#X connect 166 0 171 0;
#X connect 166 1 172 0;
#X connect 166 2 168 0;
#X connect 167 0 181 0;
#X connect 167 1 173 0;
#X connect 167 2 169 0;
#X connect 168 0 165 1;
#X connect 169 0 170 1;
#X connect 170 0 163 0;
#X connect 171 0 165 1;
#X connect 172 0 165 1;
#X connect 173 0 170 1;
#X connect 174 0 179 0;
#X connect 175 0 162 0;
#X connect 176 0 174 0;
#X connect 177 0 178 0;
#X connect 178 0 180 0;
#X connect 179 0 178 0;
#X connect 179 1 178 1;
#X connect 180 0 175 0;
#X connect 181 0 170 1;
#X connect 182 0 177 0;
#X connect 183 0 184 0;
#X connect 184 0 65 0;
#X connect 186 0 151 0;
#X connect 189 0 188 1;
#X connect 191 0 132 0;
#X connect 192 0 193 0;
#X connect 193 0 136 0;
#X connect 194 0 72 1;
#X connect 195 0 80 0;
#X connect 196 0 5 1;
#X connect 197 0 44 2;
#X connect 198 0 130 0;
#X connect 199 0 52 1;
#X connect 200 0 152 1;
#X connect 201 0 154 0;
#X connect 202 0 152 1;
#X connect 202 0 152 2;
#X connect 203 0 154 0;
#X connect 205 0 204 0;
#X connect 206 0 205 0;
#X connect 207 0 206 0;
#X connect 208 0 68 1;
#X connect 208 1 17 1;
#X connect 212 0 205 2;
#X connect 213 0 194 1;
#X connect 214 0 208 0;
#X connect 215 0 205 1;
#X connect 216 0 117 1;
#X connect 217 0 205 3;
#X connect 218 0 69 1;
#X coords 1 0 0 1 18 510 2 0 0;
