#N canvas 32 117 776 818 10;
#X obj 260 -179 pack;
#X msg 204 -145 dirty 0;
#X obj 233 -228 t b f;
#N canvas 820 82 779 818 randomize 0;
#X obj 132 411 pack 0 0 \$1 \$2;
#X msg 132 443 \; cell-\$3-\$4-\$2 pitch \$1;
#X obj 132 368 random \$5;
#X obj 132 236 until;
#X obj 132 193 \$3;
#X obj 131 131 bng 15 250 50 0 empty empty empty 17 7 0 10 -262144
-1 -1;
#X obj 163 296 int;
#X obj 132 296 +;
#X msg 132 268 1;
#X obj 132 164 t b b;
#X obj 132 335 t b f;
#X obj 291 425 pack 0 0 \$1 \$2;
#X obj 291 234 until;
#X obj 291 191 \$3;
#X obj 322 294 int;
#X obj 291 294 +;
#X msg 291 266 1;
#X obj 291 162 t b b;
#X obj 291 333 t b f;
#X msg 291 457 \; cell-\$3-\$4-\$2 vel \$1;
#X obj 293 110 bng 15 250 50 0 empty empty empty 17 7 0 10 -262144
-1 -1;
#X obj 291 366 random 100;
#X obj 293 394 / 100;
#X obj 445 428 pack 0 0 \$1 \$2;
#X obj 445 237 until;
#X obj 445 194 \$3;
#X obj 476 297 int;
#X obj 445 297 +;
#X msg 445 269 1;
#X obj 445 165 t b b;
#X obj 445 336 t b f;
#X obj 441 114 bng 15 250 50 0 empty empty empty 17 7 0 10 -262144
-1 -1;
#X msg 445 460 \; cell-\$3-\$4-\$2 act \$1;
#X obj 445 369 random 2;
#X obj 140 28 r \$0-rndPitch;
#X obj 304 28 r \$0-rndAct;
#X obj 227 28 r \$0-rndVel;
#X obj 381 28 r \$0-rndAll;
#X msg 163 212 -1;
#X msg 322 210 -1;
#X msg 476 213 -1;
#X connect 0 0 1 0;
#X connect 2 0 0 0;
#X connect 3 0 8 0;
#X connect 4 0 3 0;
#X connect 5 0 9 0;
#X connect 6 0 7 1;
#X connect 7 0 6 0;
#X connect 7 0 10 0;
#X connect 8 0 7 0;
#X connect 9 0 4 0;
#X connect 9 1 38 0;
#X connect 10 0 2 0;
#X connect 10 1 0 1;
#X connect 11 0 19 0;
#X connect 12 0 16 0;
#X connect 13 0 12 0;
#X connect 14 0 15 1;
#X connect 15 0 14 0;
#X connect 15 0 18 0;
#X connect 16 0 15 0;
#X connect 17 0 13 0;
#X connect 17 1 39 0;
#X connect 18 0 21 0;
#X connect 18 1 11 1;
#X connect 20 0 17 0;
#X connect 21 0 22 0;
#X connect 22 0 11 0;
#X connect 23 0 32 0;
#X connect 24 0 28 0;
#X connect 25 0 24 0;
#X connect 26 0 27 1;
#X connect 27 0 26 0;
#X connect 27 0 30 0;
#X connect 28 0 27 0;
#X connect 29 0 25 0;
#X connect 29 1 40 0;
#X connect 30 0 33 0;
#X connect 30 1 23 1;
#X connect 31 0 29 0;
#X connect 33 0 23 0;
#X connect 34 0 9 0;
#X connect 35 0 29 0;
#X connect 36 0 17 0;
#X connect 37 0 9 0;
#X connect 37 0 17 0;
#X connect 37 0 29 0;
#X connect 38 0 6 0;
#X connect 39 0 14 0;
#X connect 40 0 26 0;
#X restore 34 -202 pd randomize;
#X obj 233 -333 loadbang;
#X obj 233 -300 t b b;
#X obj 31 -318 namecanvas seqmodule-\$1-\$2;
#X obj 260 -109 s seqmodule-\$1-\$2;
#X obj 28 -278 makeCh \$1 \$2 \$3 \$4 \$5 \$6 \$7;
#X obj 233 -266 expr \$3 * \$4;
#X msg 260 -145 donecanvasdialog 1 1 1 1 0 0 0 \$1 \$2 0 -10;
#X obj 320 -196 expr (\$5+1)*\$4+\$6+10;
#X obj 303 -5 tgl 15 0 \$0-play play Play 17 7 0 10 -262144 -1 -1 1
1;
#X obj 351 -5 bng 15 250 50 0 \$0-reset reset reset 17 7 0 10 -262144
-1 -1;
#X floatatom 409 -4 5 0 0 1 stepLen stepLen #0-stepLen, f 5;
#N canvas 932 151 662 686 reset 0;
#X msg 299 546 \; cell-\$1-\$2-\$3 vel \$4;
#X msg 129 543 \; cell-\$1-\$2-\$3 pitch \$4;
#X obj 1076 208 bng 15 250 50 0 empty empty empty 17 7 0 10 -262144
-1 -1;
#X obj 321 7 until;
#X obj 321 -16 int;
#X obj 320 54 +;
#X obj 362 37 int;
#X msg 320 29 1;
#X obj 336 -43 r steps;
#X msg 92 91 \; steps 16;
#X obj 320 -96 bng 15 250 50 0 empty empty empty 17 7 0 10 -262144
-1 -1;
#X obj 129 364 t b f;
#X msg 359 7 -1;
#X obj 298 374 t b f;
#X obj 460 377 t b f;
#X msg 456 549 \; cell-\$1-\$2-\$3 act \$4;
#X obj 321 -70 t b b;
#X obj 348 164 t a a a;
#X msg 322 211 \$1 0;
#X msg 435 218 \$1 0;
#X obj 129 331 unpack f f;
#X obj 129 478 pack \$1 \$2 f f;
#X obj 298 341 unpack f f;
#X obj 460 344 unpack f f;
#X obj 298 488 pack \$1 \$2 f f;
#X obj 460 491 pack \$1 \$2 f f;
#X obj 106 48 loadbang;
#X obj 342 -100 r \$0-reset;
#X obj 236 193 pack 0 \$5;
#X msg 236 216 \$1 \$2;
#X obj 210 389 - 1;
#X connect 3 0 7 0;
#X connect 4 0 3 0;
#X connect 5 0 6 0;
#X connect 5 0 17 0;
#X connect 6 0 5 1;
#X connect 7 0 5 0;
#X connect 8 0 4 1;
#X connect 10 0 16 0;
#X connect 11 0 21 0;
#X connect 11 1 21 2;
#X connect 12 0 5 1;
#X connect 13 0 24 0;
#X connect 13 1 24 2;
#X connect 14 0 25 0;
#X connect 14 1 25 2;
#X connect 16 0 4 0;
#X connect 16 1 12 0;
#X connect 17 0 28 0;
#X connect 17 1 18 0;
#X connect 17 2 19 0;
#X connect 18 0 22 0;
#X connect 19 0 23 0;
#X connect 20 0 11 0;
#X connect 20 1 30 0;
#X connect 21 0 1 0;
#X connect 22 0 13 0;
#X connect 22 1 24 3;
#X connect 23 0 14 0;
#X connect 23 1 25 3;
#X connect 24 0 0 0;
#X connect 25 0 15 0;
#X connect 26 0 9 0;
#X connect 27 0 16 0;
#X connect 28 0 29 0;
#X connect 29 0 20 0;
#X connect 30 0 21 3;
#X restore 33 -235 pd reset;
#X floatatom 383 17 5 1 16 1 seqEnd seqEnd #0-seqEnd, f 5;
#X floatatom 295 17 5 1 16 1 seqStart seqStart #0-seqStart, f 5;
#N canvas 38 92 1553 846 clock 0;
#X obj 161 45 r clock;
#X msg 161 411 \; clock-\$2-\$3 \$1;
#X obj 161 384 pack 0 \$1 \$2;
#X obj 161 192 int;
#X obj 161 155 /;
#X floatatom 227 165 5 0 0 0 - - -, f 5;
#X obj 227 102 r \$0-stepLen;
#X obj 161 129 spigot;
#X obj 194 73 r \$0-play;
#X floatatom 181 97 5 0 0 0 - - -, f 5;
#X obj 322 109 r \$0-seqStart;
#X obj 418 125 r \$0-seqEnd;
#X floatatom 352 197 5 0 0 0 - - -, f 5;
#X obj 376 142 t b f;
#X obj 161 283 mod;
#X obj 240 266 expr sqrt($f1*$f1);
#X floatatom 240 291 5 0 0 0 - - -, f 5;
#X obj 322 168 expr $f2 - $f1;
#X obj 161 308 *;
#X obj 213 239 expr if ($f1 >= 0 \, 1 \, -1);
#X obj 213 212 t f f;
#X floatatom 119 317 5 0 0 0 - - -, f 5;
#X obj 161 339 +;
#X obj 199 322 r \$0-seqStart;
#X obj 161 361 - 1;
#X obj 322 195 + 1;
#X obj 227 138 expr 96/$f1;
#X connect 0 0 7 0;
#X connect 2 0 1 0;
#X connect 3 0 14 0;
#X connect 4 0 3 0;
#X connect 6 0 26 0;
#X connect 7 0 4 0;
#X connect 8 0 7 1;
#X connect 8 0 9 0;
#X connect 10 0 17 0;
#X connect 11 0 13 0;
#X connect 13 0 17 0;
#X connect 13 1 17 1;
#X connect 14 0 21 0;
#X connect 14 0 18 0;
#X connect 15 0 16 0;
#X connect 15 0 14 1;
#X connect 17 0 12 0;
#X connect 17 0 25 0;
#X connect 18 0 22 0;
#X connect 19 0 18 1;
#X connect 20 0 19 0;
#X connect 20 1 15 0;
#X connect 22 0 24 0;
#X connect 23 0 22 1;
#X connect 24 0 2 0;
#X connect 25 0 20 0;
#X connect 26 0 4 1;
#X connect 26 0 5 0;
#X restore 38 -159 pd clock;
#X obj 477 39 bng 15 250 50 0 \$0-rndAll rndAll rndAll 17 7 0 10 -262144
-1 -1;
#X obj 295 39 bng 15 250 50 0 \$0-rndPitch rndPitch rndPitch 17 7 0
10 -262144 -1 -1;
#X obj 365 38 bng 15 250 50 0 \$0-rndVel rndVel rndVel 17 7 0 10 -262144
-1 -1;
#X obj 420 39 bng 15 250 50 0 \$0-rndAct rndAct rndAct 17 7 0 10 -262144
-1 -1;
#X obj 260 -200 + 250;
#X connect 0 0 10 0;
#X connect 1 0 7 0;
#X connect 2 0 1 0;
#X connect 2 1 23 0;
#X connect 4 0 5 0;
#X connect 5 0 9 0;
#X connect 5 1 11 0;
#X connect 9 0 2 0;
#X connect 10 0 7 0;
#X connect 11 0 0 1;
#X connect 23 0 0 0;
#X coords 1 0 0 1 538 520 1 0 -10;
