#N canvas 0 82 960 998 10;
#N canvas 960 82 960 998 output 0;
#X obj 109 143 unpack;
#X obj 255 142 unpack;
#X obj 394 142 unpack;
#X obj 580 142 unpack;
#X obj 724 142 unpack;
#X obj 109 470 s stepper1;
#X obj 109 376 tabread pitchtable;
#X msg 109 405 pos \$1;
#X msg 142 443 spd \$1;
#X msg 255 350 \; pick hit;
#X msg 272 306 \; pick mute;
#X msg 613 270 \; stepper2 pos \$1;
#X msg 757 271 \; stepper2 spd \$1;
#X obj 613 224 * 1500;
#X msg 289 266 \; pick unmute;
#X obj 255 104 r channel1-2;
#X obj 255 226 sel 1 2 3;
#X obj 109 105 r channel1-1;
#X obj 394 104 r channel1-3;
#X obj 580 106 r channel1-4;
#X obj 724 106 r channel1-5;
#X obj 109 197 - 1;
#X msg 427 282 \; kickup \$1;
#X floatatom 274 191 5 0 0 0 - - -, f 5;
#X floatatom 154 198 5 0 0 0 - - -, f 5;
#X connect 0 0 21 0;
#X connect 0 0 24 0;
#X connect 0 1 8 0;
#X connect 1 0 16 0;
#X connect 1 0 23 0;
#X connect 2 1 22 0;
#X connect 3 1 13 0;
#X connect 4 1 12 0;
#X connect 6 0 7 0;
#X connect 7 0 5 0;
#X connect 8 0 5 0;
#X connect 13 0 11 0;
#X connect 15 0 1 0;
#X connect 16 0 9 0;
#X connect 16 1 10 0;
#X connect 16 2 14 0;
#X connect 17 0 0 0;
#X connect 18 0 2 0;
#X connect 19 0 3 0;
#X connect 20 0 4 0;
#X connect 21 0 6 0;
#X restore 784 398 pd output;
#N canvas 267 188 1321 714 controller 0;
#X obj 263 -152 ctlin 1;
#X obj 315 -153 r steps;
#X msg 45 244 \; steps 16;
#X floatatom 312 -27 5 0 0 0 - - -, f 5;
#X obj 263 -105 / 127;
#X obj 263 -74 *;
#X obj 263 -44 int;
#X obj 315 -105 - 1;
#X obj 263 -2 s edt_idx;
#X obj 62 -14 tgl 15 0 empty empty empty 17 7 0 10 -262144 -1 -1 0
1;
#X msg 52 27 \; cell-1-1-3 act \$1;
#X msg 83 163 1;
#X msg 119 164 2;
#X obj 76 123 loadbang;
#X msg 56 205 \; edt_seq \$1;
#X obj 336 281 pack f f f f;
#X obj 402 -35 stripnote;
#X obj 336 222 int;
#X obj 368 174 t b b f;
#X obj 392 214 r edt_idx;
#X obj 487 281 pack f f f f;
#X obj 487 222 int;
#X obj 519 174 t b b f;
#X obj 548 218 r edt_idx;
#X msg 471 377 \; cell-\$1-\$2-\$3 vel \$4;
#X msg 320 377 \; cell-\$1-\$2-\$3 pitch \$4;
#X obj 912 -149 stripnote;
#X obj 912 43 int;
#X obj 969 46 r edt_idx;
#X msg 912 195 \; cell-\$1-\$2-\$3 act 2;
#X obj 912 133 pack f f f;
#X obj 357 -100 moses 48;
#X obj 272 155 r edt_seq;
#X obj 449 181 r edt_seq;
#X obj 927 19 r edt_seq;
#X obj 366 218 int;
#X obj 515 219 int;
#X obj 402 87 pack f 1;
#X obj 402 131 unpack f f;
#X obj 489 88 pack f 1;
#X obj 489 125 unpack f f;
#X obj 1476 -81 bng 15 250 50 0 empty empty empty 17 7 0 10 -262144
-1 -1;
#X obj 912 -42 t b f;
#X obj 584 -135 / 127;
#X obj 584 -86 int;
#X obj 596 6 pack f 2;
#X obj 584 -64 t b f;
#X obj 596 -18 -;
#X msg 584 -41 2;
#X obj 584 -110 * 2.99;
#X obj 522 9 pack f 1;
#X obj 656 9 pack f 3;
#X obj 719 8 pack f 4;
#X obj 777 9 pack f 5;
#X msg 912 -83 1;
#X msg 943 -83 2;
#X msg 970 -83 3;
#X msg 999 -83 4;
#X msg 1029 -82 5;
#X obj 402 16 t b f;
#X obj 402 38 int;
#X obj 402 62 -;
#X obj 443 21 r pitches;
#X msg 158 208 \; pitches 12;
#X text 265 -178 edit index;
#X obj 210 -423 ctlin;
#X obj 237 -401 == 1;
#X obj 7 -396 pack;
#X obj 210 -378 pack;
#X obj 7 -359 spigot;
#X obj 210 -352 spigot;
#X obj 210 -319 spigot;
#X obj 145 -383 r seq_edit;
#X obj 408 -135 unpack;
#X msg 469 -333 \$2 \$1;
#X text 416 -201 pitch;
#X text 522 -17 pitchspd;
#X text 660 -19 kickvel;
#X text 716 -21 damp_pos;
#X text 776 -22 damp_spd;
#X text 579 -162 servo;
#X obj 469 -287 route 9 2 3 4 5 6;
#X obj 912 -180 unpack;
#X obj 296 -423 ctlin;
#X obj 296 -378 pack;
#X obj 296 -352 spigot;
#X obj 296 -319 spigot;
#X obj 210 -278 s \$0-ctlin1;
#X obj 296 -278 s \$0-ctlin2;
#X obj 469 -369 r \$0-ctlin1;
#X obj 323 -401 == 2;
#X msg 635 -330 \$2 \$1;
#X obj 635 -366 r \$0-ctlin2;
#X floatatom 368 -364 5 0 0 0 - - -, f 5;
#X obj 635 -284 route 5 6 7 8;
#X floatatom 838 -147 5 0 0 0 - - -, f 5;
#X obj 7 -286 s \$0-notein1;
#X obj 408 -171 r \$0-notein1;
#X obj 912 -207 r \$0-notein2;
#X obj 86 -397 pack;
#X obj 86 -360 spigot;
#X obj 86 -287 s \$0-notein2;
#X obj 86 -432 notein 2;
#X obj 7 -431 notein 1;
#X obj 912 -116 sel 48 49 50 51 44 45 46 47;
#X obj 402 -8 - 60;
#X obj 402 -71 moses 73;
#X connect 0 0 4 0;
#X connect 1 0 7 0;
#X connect 4 0 5 0;
#X connect 5 0 6 0;
#X connect 6 0 3 0;
#X connect 6 0 8 0;
#X connect 7 0 5 1;
#X connect 9 0 10 0;
#X connect 11 0 14 0;
#X connect 12 0 14 0;
#X connect 13 0 11 0;
#X connect 13 0 2 0;
#X connect 13 0 63 0;
#X connect 15 0 25 0;
#X connect 16 0 105 0;
#X connect 16 1 39 0;
#X connect 17 0 15 0;
#X connect 18 0 17 0;
#X connect 18 1 35 0;
#X connect 18 2 15 3;
#X connect 19 0 15 2;
#X connect 20 0 24 0;
#X connect 21 0 20 0;
#X connect 22 0 21 0;
#X connect 22 1 36 0;
#X connect 22 2 20 3;
#X connect 23 0 20 2;
#X connect 26 0 95 0;
#X connect 26 0 104 0;
#X connect 27 0 30 0;
#X connect 28 0 30 2;
#X connect 30 0 29 0;
#X connect 31 1 106 0;
#X connect 32 0 17 1;
#X connect 33 0 21 1;
#X connect 34 0 27 1;
#X connect 35 0 15 1;
#X connect 36 0 20 1;
#X connect 37 0 38 0;
#X connect 38 0 18 0;
#X connect 38 1 35 1;
#X connect 39 0 40 0;
#X connect 40 0 22 0;
#X connect 40 1 36 1;
#X connect 42 0 27 0;
#X connect 42 1 30 1;
#X connect 43 0 49 0;
#X connect 44 0 46 0;
#X connect 45 0 38 0;
#X connect 46 0 48 0;
#X connect 46 1 47 1;
#X connect 47 0 45 0;
#X connect 48 0 47 0;
#X connect 49 0 44 0;
#X connect 50 0 40 0;
#X connect 51 0 40 0;
#X connect 52 0 40 0;
#X connect 53 0 40 0;
#X connect 54 0 42 0;
#X connect 55 0 42 0;
#X connect 56 0 42 0;
#X connect 57 0 42 0;
#X connect 58 0 42 0;
#X connect 59 0 60 0;
#X connect 59 1 61 1;
#X connect 60 0 61 0;
#X connect 61 0 37 0;
#X connect 62 0 60 1;
#X connect 65 0 68 0;
#X connect 65 1 68 1;
#X connect 65 2 66 0;
#X connect 66 0 70 1;
#X connect 67 0 69 0;
#X connect 68 0 70 0;
#X connect 69 0 96 0;
#X connect 70 0 71 0;
#X connect 71 0 87 0;
#X connect 72 0 69 1;
#X connect 72 0 71 1;
#X connect 72 0 86 1;
#X connect 72 0 100 1;
#X connect 73 0 31 0;
#X connect 73 1 16 1;
#X connect 74 0 81 0;
#X connect 81 0 4 0;
#X connect 81 1 50 0;
#X connect 81 2 43 0;
#X connect 81 3 51 0;
#X connect 81 4 52 0;
#X connect 81 5 53 0;
#X connect 82 0 26 0;
#X connect 82 1 26 1;
#X connect 83 0 84 0;
#X connect 83 1 84 1;
#X connect 83 1 93 0;
#X connect 83 2 90 0;
#X connect 84 0 85 0;
#X connect 85 0 86 0;
#X connect 86 0 88 0;
#X connect 89 0 74 0;
#X connect 90 0 85 1;
#X connect 91 0 94 0;
#X connect 92 0 91 0;
#X connect 97 0 73 0;
#X connect 98 0 82 0;
#X connect 99 0 100 0;
#X connect 100 0 101 0;
#X connect 102 0 99 0;
#X connect 102 1 99 1;
#X connect 103 0 67 0;
#X connect 103 1 67 1;
#X connect 104 0 54 0;
#X connect 104 1 55 0;
#X connect 104 2 56 0;
#X connect 104 3 57 0;
#X connect 104 4 58 0;
#X connect 105 0 59 0;
#X connect 106 0 16 0;
#X restore 784 450 pd controller;
#X obj 584 26 tgl 15 0 play empty Play 17 7 0 10 -262144 -1 -1 1 1
;
#X obj 722 31 bng 15 250 50 0 reset empty reset 17 7 0 10 -262144 -1
-1;
#X floatatom 667 95 5 1 16 1 seqEnd - seqEnd, f 5;
#X floatatom 579 95 5 1 16 1 seqStart - seqStart, f 5;
#X floatatom 640 27 5 1 32 1 stepLen - stepLen, f 5;
#X obj 654 175 bng 15 250 50 0 rndAll empty rndAll 17 7 0 10 -262144
-1 -1;
#X obj 582 144 bng 15 250 50 0 rndPitch empty rndPitch 17 7 0 10 -262144
-1 -1;
#X obj 652 143 bng 15 250 50 0 rndVel empty rndVel 17 7 0 10 -262144
-1 -1;
#X obj 582 181 bng 15 250 50 0 rndAct empty rndAct 17 7 0 10 -262144
-1 -1;
#N canvas 998 209 1553 818 clock 1;
#X msg 203 221 248;
#X msg 138 254 252;
#X msg 166 255 250;
#X obj 353 431 t f;
#X msg 103 331 1;
#X obj 103 362 +;
#X obj 145 345 int;
#X obj 103 124 tgl 15 0 empty empty empty 17 7 0 10 -262144 -1 -1 0
1;
#X msg 355 510 \; clock-1-2 \$1;
#X msg 322 587 \; clock-1-3 \$1;
#X msg 355 477 \; clock-1-1 \$1;
#X msg 322 630 \; clock-1-4 \$1;
#X msg 321 674 \; clock-1-5 \$1;
#X obj 444 444 t f;
#X msg 446 576 \; clock-2-3 \$1;
#X msg 446 619 \; clock-2-4 \$1;
#X msg 445 663 \; clock-2-5 \$1;
#X obj 103 309 metro 150;
#X obj 162 390 s clock;
#X obj 322 358 r clock;
#X obj 400 16 r bpm;
#X obj 197 119 s bpm, f 6;
#X msg 386 80 60000;
#X obj 398 50 t b f;
#X obj 386 112 /;
#X floatatom 363 200 5 0 0 0 - - -, f 5;
#X floatatom 424 200 5 0 0 0 - - -, f 5;
#X msg 445 476 \; clock-2-1 \$1;
#X msg 445 508 \; clock-2-2 \$1;
#X obj 103 399 mod 96;
#X floatatom 537 241 5 0 0 0 - - -, f 5;
#X obj 182 446 mod 1;
#X obj 117 434 / 24;
#X obj 120 483 int;
#X floatatom 116 517 5 0 0 0 - - -, f 5;
#X msg 138 278 0;
#X floatatom 126 124 5 0 0 0 - - -, f 5;
#X obj 127 37 loadbang;
#X msg 127 69 110;
#X obj 111 194 t f f;
#X obj 138 221 sel 0 1;
#X obj 202 175 r clock;
#X obj 203 199 t b;
#X obj 195 277 spigot;
#X obj 164 135 tgl 15 0 empty empty empty 17 7 0 10 -262144 -1 -1 0
1;
#X obj 211 333 midiout;
#X obj 250 22 midirealtimein;
#X obj 288 124 bng 15 250 50 0 empty empty empty 17 7 0 10 -262144
-1 -1;
#X obj 248 54 spigot;
#X obj 163 105 tgl 15 0 empty empty empty 17 7 0 10 -262144 -1 -1 1
1;
#X obj 251 81 sel 248 250 252;
#X obj 392 151 / 24;
#X connect 0 0 43 0;
#X connect 1 0 35 0;
#X connect 1 0 43 0;
#X connect 2 0 43 0;
#X connect 3 0 10 0;
#X connect 3 0 8 0;
#X connect 3 0 9 0;
#X connect 3 0 11 0;
#X connect 3 0 12 0;
#X connect 4 0 5 0;
#X connect 5 0 6 0;
#X connect 5 0 29 0;
#X connect 5 0 18 0;
#X connect 6 0 5 1;
#X connect 7 0 39 0;
#X connect 13 0 27 0;
#X connect 13 0 28 0;
#X connect 13 0 14 0;
#X connect 13 0 15 0;
#X connect 13 0 16 0;
#X connect 17 0 4 0;
#X connect 20 0 23 0;
#X connect 22 0 24 0;
#X connect 23 0 22 0;
#X connect 23 1 24 1;
#X connect 24 0 25 0;
#X connect 24 0 51 0;
#X connect 29 0 32 0;
#X connect 32 0 33 0;
#X connect 33 0 34 0;
#X connect 35 0 6 0;
#X connect 36 0 21 0;
#X connect 37 0 38 0;
#X connect 38 0 36 0;
#X connect 39 0 17 0;
#X connect 39 1 40 0;
#X connect 40 0 1 0;
#X connect 40 1 2 0;
#X connect 41 0 42 0;
#X connect 42 0 0 0;
#X connect 43 0 45 0;
#X connect 44 0 43 1;
#X connect 46 0 48 0;
#X connect 48 0 50 0;
#X connect 49 0 48 1;
#X connect 50 0 47 0;
#X connect 50 0 4 0;
#X connect 50 1 2 0;
#X connect 50 2 1 0;
#X connect 51 0 26 0;
#X connect 51 0 17 1;
#X coords 0 -1 1 1 85 60 1 100 100;
#X restore 602 232 pd clock;
#X msg 640 0 16;
#X msg 585 -26 1;
#X msg 579 59 1;
#X msg 667 57 16;
#X obj 656 -56 t b;
#X obj 655 -90 loadbang;
#X obj 681 -71 bng 15 250 50 0 empty empty empty 17 7 0 10 -262144
-1 -1;
#X obj 17 619 seqmodule \$1 3 \$2 18 0 40;
#X obj 17 692 seqmodule \$1 4 \$2 18 0 40;
#X obj 17 763 seqmodule \$1 5 \$2 18 0 40;
#X obj 17 532 seqmodule \$1 2 \$2 18 3 0;
#X obj 18 10 seqmodule \$1 1 \$2 18 24 60;
#X connect 12 0 6 0;
#X connect 13 0 2 0;
#X connect 14 0 5 0;
#X connect 15 0 4 0;
#X connect 16 0 12 0;
#X connect 16 0 13 0;
#X connect 16 0 3 0;
#X connect 16 0 14 0;
#X connect 16 0 15 0;
#X connect 17 0 16 0;
#X connect 18 0 16 0;
#X coords 0 -1 1 1 750 900 1 0 0;
